<svg xmlns="http://www.w3.org/2000/svg" viewBox="0 0 128 128" width="48px" height="48px"><path fill="#fff" d="M64,123c32.5,0,59-26.5,59-59c0-15.8-6.1-30.6-17.3-41.7C94.6,11.1,79.8,5,64,5C31.5,5,5,31.4,5,64 c0,10.4,2.7,20.5,7.9,29.5l-5.6,20.6c-1.2,4.4,2.8,8.5,7.3,7.3l21.3-5.6C44.4,120.5,54.1,123,64,123L64,123z"/><path fill="#00b1fe" d="M64,111c-7.8,0-15.6-2-22.5-5.7c-1.8-1-3.8-1.5-5.7-1.5c-1,0-2,0.1-3,0.4l-11.2,2.9l2.9-10.5 c0.8-3.1,0.4-6.4-1.2-9.2C19.1,80.3,17,72.2,17,64C17,38,38.1,17,64,17c12.6,0,24.4,4.9,33.3,13.8C106.1,39.6,111,51.4,111,64 C111,89.9,89.9,111,64,111L64,111z"/><path fill="#444b54" d="M107.9,20.2C96.2,8.5,80.6,2,64,2C29.8,2,2,29.8,2,64c0,10.5,2.6,20.8,7.7,29.9l-5.3,19.4 c-0.9,3.1,0,6.3,2.3,8.6c2.3,2.3,5.5,3.2,8.6,2.4l20.2-5.3c8.8,4.6,18.6,7,28.6,7c34.2,0,62-27.8,62-62 C126,47.5,119.6,31.9,107.9,20.2z M64,120c-9.3,0-18.6-2.4-26.8-6.8c-0.4-0.2-0.9-0.4-1.4-0.4c-0.3,0-0.5,0-0.8,0.1l-21.3,5.6 c-1.5,0.4-2.5-0.4-2.9-0.8c-0.4-0.4-1.2-1.4-0.8-2.9l5.6-20.6c0.2-0.8,0.1-1.6-0.3-2.3C10.5,83.5,8,73.8,8,64C8,33.1,33.1,8,64,8 c15,0,29.1,5.8,39.6,16.4C114.2,35,120.1,49.1,120,64C120,94.9,94.9,120,64,120z"/><g><path fill="#fff" d="M30.3,78L46,53.5c3.3-5.1,10.3-6.2,14.9-2.3l10.4,8.7c1.3,1.1,3.2,1.1,4.5,0l16.7-13.3c2.5-2,5.8,1,4.2,3.7 l-15,24.4c-3.6,5.8-11.6,7-16.7,2.3l-9-8.3c-1.3-1.2-3.4-1.3-4.8-0.1L35.2,82.3C32.3,84.8,28.3,81.2,30.3,78z"/></g></svg>