<?xml version="1.0" encoding="utf-8"?>
<!-- Generator: Adobe Illustrator 25.1.0, SVG Export Plug-In . SVG Version: 6.00 Build 0)  -->
<svg version="1.1" id="Layer_1" xmlns="http://www.w3.org/2000/svg" xmlns:xlink="http://www.w3.org/1999/xlink" x="0px" y="0px"
	 viewBox="0 0 100 100" style="enable-background:new 0 0 100 100;" xml:space="preserve">
<style type="text/css">
	.st0{fill-rule:evenodd;clip-rule:evenodd;}
</style>
<path d="M64.6,45H35.4v2.6h29.2V45z M64.6,52.4H35.4V55h29.2V52.4z M64.6,30H35.4v2.6h29.2V30z M64.6,37.5H35.4v2.6h29.2V37.5z
	 M64.6,59.9H35.4v2.6h29.2V59.9z M50,0C22.4,0,0,22.4,0,50s22.4,50,50,50c27.6,0,50-22.4,50-50S77.6,0,50,0z M72.6,82H27.4V18h45.2
	V82z M64.6,67.4H35.4V70h29.2V67.4z"/>
</svg>
