<?xml version="1.0" encoding="utf-8"?>
<!-- Generator: Adobe Illustrator 25.1.0, SVG Export Plug-In . SVG Version: 6.00 Build 0)  -->
<svg version="1.1" id="Layer_1" xmlns="http://www.w3.org/2000/svg" xmlns:xlink="http://www.w3.org/1999/xlink" x="0px" y="0px"
	 viewBox="0 0 100 100" style="enable-background:new 0 0 100 100;" xml:space="preserve">
<style type="text/css">
	.st0{fill-rule:evenodd;clip-rule:evenodd;}
</style>
<path d="M50,0C22.4,0,0,22.4,0,50s22.4,50,50,50s50-22.4,50-50S77.6,0,50,0z M80.4,26.2l-4.8,4.7c-0.4,0.3-0.6,0.8-0.5,1.4v34.2
	c-0.1,0.5,0.1,1,0.5,1.4l4.7,4.7v1H56.4v-1l4.9-4.8c0.5-0.5,0.5-0.6,0.5-1.4V38.7L48.2,73.3h-1.8L30.5,38.7v23.2
	c-0.1,1,0.2,2,0.9,2.7l6.4,7.7v1H19.6v-1l6.4-7.7c0.7-0.7,1-1.7,0.8-2.7V35c0.1-0.7-0.2-1.5-0.8-2l-5.7-6.8v-1H38L51.6,55l12-29.9
	h16.8V26.2z"/>
</svg>
