<?xml version="1.0" encoding="utf-8"?>
<!-- Generator: Adobe Illustrator 25.1.0, SVG Export Plug-In . SVG Version: 6.00 Build 0)  -->
<svg version="1.1" id="Layer_1" xmlns="http://www.w3.org/2000/svg" xmlns:xlink="http://www.w3.org/1999/xlink" x="0px" y="0px"
	 viewBox="0 0 100 100" style="enable-background:new 0 0 100 100;" xml:space="preserve">
<style type="text/css">
	.st0{fill-rule:evenodd;clip-rule:evenodd;}
</style>
<path class="st0" d="M50,0C22.4,0,0,22.4,0,50s22.4,50,50,50s50-22.4,50-50S77.6,0,50,0z M73.2,34c-0.8,7.9-4,27.1-5.7,35.9
	c-0.7,3.7-2.1,5-3.4,5.1c-2.9,0.3-5.1-1.9-7.9-3.8c-4.4-2.9-6.9-4.7-11.2-7.5c-4.9-3.3-1.7-5,1.1-8c0.7-0.8,13.5-12.4,13.8-13.5
	c0-0.1,0.1-0.6-0.2-0.9c-0.3-0.3-0.7-0.2-1-0.1c-0.4,0.1-7.5,4.7-21.1,13.9c-2,1.4-3.8,2-5.4,2c-1.8,0-5.2-1-7.8-1.8
	c-3.1-1-5.6-1.6-5.4-3.3c0.1-0.9,1.4-1.8,3.7-2.8c14.6-6.4,24.3-10.5,29.2-12.6c13.9-5.8,16.8-6.8,18.7-6.8c0.4,0,1.3,0.1,1.9,0.6
	c0.5,0.4,0.6,1,0.7,1.4C73.2,32.4,73.2,33.3,73.2,34z"/>
</svg>
