<?xml version="1.0" encoding="utf-8"?>
<!-- Generator: Adobe Illustrator 25.1.0, SVG Export Plug-In . SVG Version: 6.00 Build 0)  -->
<svg version="1.1" id="Layer_1" xmlns="http://www.w3.org/2000/svg" xmlns:xlink="http://www.w3.org/1999/xlink" x="0px" y="0px"
	 viewBox="0 0 100 100" style="enable-background:new 0 0 100 100;" xml:space="preserve">
<style type="text/css">
	.st0{fill-rule:evenodd;clip-rule:evenodd;}
</style>
<path d="M50,0C22.4,0,0,22.4,0,50s22.4,50,50,50c27.6,0,50-22.4,50-50S77.6,0,50,0z M75.1,40.5c0,0.5,0,1,0,1.5
	C75.1,58,63,76.4,40.9,76.4c-6.8,0-13.2-2-18.4-5.4c1,0.1,1.9,0.2,2.9,0.2c5.7,0,10.9-1.9,15-5.1c-5.3-0.1-9.7-3.6-11.2-8.4
	c0.7,0.2,1.5,0.2,2.3,0.2c1.1,0,2.2-0.2,3.2-0.4c-5.5-1.1-9.7-6-9.7-11.8v-0.2c1.6,0.9,3.5,1.4,5.4,1.5c-3.2-2.1-5.4-5.8-5.4-10
	c0-2.2,0.6-4.3,1.6-6c5.9,7.3,14.8,12.1,24.8,12.6c-0.2-0.9-0.3-1.8-0.3-2.8c0-6.7,5.4-12.1,12-12.1c3.5,0,6.6,1.5,8.8,3.8
	c2.8-0.5,5.3-1.5,7.7-2.9c-0.9,2.8-2.8,5.2-5.3,6.7c2.4-0.3,4.8-0.9,6.9-1.9C79.5,36.7,77.5,38.8,75.1,40.5z"/>
</svg>
