<?xml version="1.0" encoding="utf-8"?>
<!-- Generator: Adobe Illustrator 25.1.0, SVG Export Plug-In . SVG Version: 6.00 Build 0)  -->
<svg version="1.1" id="Layer_1" xmlns="http://www.w3.org/2000/svg" xmlns:xlink="http://www.w3.org/1999/xlink" x="0px" y="0px"
	 viewBox="0 0 100 100" style="enable-background:new 0 0 100 100;" xml:space="preserve">
<style type="text/css">
	.st0{fill-rule:evenodd;clip-rule:evenodd;}
	.st1{fill:none;}
	.st2{fill:none;stroke:#FF671D;stroke-width:0.75;stroke-miterlimit:10;}
</style>
<path d="M50,0C22.4,0,0,22.4,0,50c0,27.6,22.4,50,50,50c27.6,0,50-22.4,50-50C100,22.4,77.6,0,50,0z M41.5,18.6
	c-2.4,2.3-4.4,5.6-6,9.6c-0.2-0.1-0.4-0.2-0.6-0.3c-0.1-0.1-0.3-0.1-0.4-0.2c-0.3-0.2-0.6-0.3-0.9-0.5c-0.1-0.1-0.2-0.1-0.3-0.2
	c-0.4-0.2-0.7-0.5-1.1-0.7c0,0-0.1,0-0.1-0.1c-0.8-0.5-1.5-1.1-2.3-1.7C33.2,21.8,37.3,19.8,41.5,18.6z M27.6,26.4
	c0,0,0.1,0.1,0.1,0.1c0.2,0.2,0.4,0.3,0.6,0.5c0.2,0.2,0.4,0.3,0.6,0.5c0.2,0.2,0.4,0.3,0.6,0.5c0.2,0.1,0.4,0.3,0.6,0.4
	c0.2,0.1,0.4,0.3,0.7,0.4c0.2,0.1,0.4,0.3,0.6,0.4c0.2,0.1,0.5,0.3,0.7,0.4c0.2,0.1,0.4,0.2,0.6,0.4c0.2,0.1,0.5,0.3,0.7,0.4
	c0.2,0.1,0.4,0.2,0.7,0.3c0.1,0,0.2,0.1,0.3,0.1C32.9,36,31.8,42,31.7,48.6H17.5C17.9,40.2,21.5,32.2,27.6,26.4z M29,72.5
	c-0.2,0.2-0.4,0.3-0.6,0.5c-0.2,0.2-0.4,0.3-0.6,0.5c0,0-0.1,0.1-0.1,0.1c-6.1-5.8-9.7-13.8-10.1-22.2h14.2
	c0.1,6.6,1.1,12.6,2.8,17.8c-0.1,0-0.2,0.1-0.2,0.1c-0.2,0.1-0.5,0.2-0.7,0.4c-0.2,0.1-0.5,0.2-0.7,0.4c-0.2,0.1-0.4,0.2-0.7,0.4
	c-0.2,0.1-0.5,0.3-0.7,0.4c-0.2,0.1-0.4,0.3-0.6,0.4c-0.2,0.1-0.4,0.3-0.7,0.4c-0.2,0.1-0.4,0.3-0.6,0.4
	C29.4,72.2,29.2,72.3,29,72.5z M29.8,75.4c0.7-0.6,1.5-1.1,2.3-1.7c0.1,0,0.1-0.1,0.2-0.1c0.3-0.2,0.7-0.4,1-0.7
	c0.1-0.1,0.2-0.1,0.4-0.2c0.3-0.2,0.6-0.3,0.9-0.5c0.1-0.1,0.3-0.2,0.4-0.2c0.2-0.1,0.4-0.2,0.6-0.3c1.6,4,3.7,7.3,6,9.6
	C37.3,80.2,33.2,78.2,29.8,75.4z M48.6,82.3c-4.2-0.8-8-5.2-10.5-11.8c0.1,0,0.1-0.1,0.2-0.1c0.2-0.1,0.4-0.1,0.6-0.2
	c0.3-0.1,0.5-0.2,0.8-0.3c0.2-0.1,0.4-0.1,0.6-0.2c0.2-0.1,0.5-0.2,0.8-0.2c0.2-0.1,0.4-0.1,0.6-0.2c0.2-0.1,0.5-0.1,0.7-0.2
	c0.2-0.1,0.4-0.1,0.6-0.1c0.2-0.1,0.5-0.1,0.7-0.2c0.2,0,0.4-0.1,0.6-0.1c0.2,0,0.5-0.1,0.7-0.1c0.2,0,0.4-0.1,0.7-0.1
	c0.3,0,0.5-0.1,0.8-0.1c0.2,0,0.4-0.1,0.7-0.1c0.3,0,0.5,0,0.8-0.1c0.2,0,0.4,0,0.7,0c0,0,0,0,0,0V82.3z M48.6,65.6
	c-0.1,0-0.1,0-0.2,0c-0.1,0-0.2,0-0.3,0c-0.4,0-0.9,0-1.3,0.1c-0.2,0-0.3,0-0.5,0.1c-0.4,0-0.7,0.1-1.1,0.1c-0.2,0-0.4,0.1-0.6,0.1
	c-0.3,0-0.6,0.1-0.9,0.2c-0.2,0-0.4,0.1-0.6,0.1c-0.3,0.1-0.6,0.1-0.9,0.2c-0.2,0-0.4,0.1-0.7,0.2c-0.3,0.1-0.6,0.1-0.8,0.2
	c-0.2,0.1-0.5,0.1-0.7,0.2c-0.3,0.1-0.5,0.2-0.8,0.2c-0.2,0.1-0.5,0.2-0.7,0.2c-0.3,0.1-0.5,0.2-0.8,0.3c-0.2,0.1-0.5,0.2-0.7,0.3
	c-1.6-4.8-2.5-10.5-2.7-16.6h14.2V65.6z M48.6,48.6H34.5c0.1-6.1,1.1-11.8,2.7-16.6c0.2,0.1,0.5,0.2,0.7,0.3
	c0.2,0.1,0.5,0.2,0.7,0.3c0.2,0.1,0.5,0.2,0.7,0.2c0.2,0.1,0.5,0.2,0.7,0.2c0.2,0.1,0.5,0.1,0.7,0.2c0.3,0.1,0.5,0.1,0.8,0.2
	c0.2,0.1,0.5,0.1,0.7,0.2c0.3,0.1,0.5,0.1,0.8,0.2c0.2,0,0.5,0.1,0.7,0.1c0.3,0,0.6,0.1,0.8,0.1c0.2,0,0.5,0.1,0.7,0.1
	c0.3,0,0.6,0.1,0.9,0.1c0.2,0,0.4,0.1,0.7,0.1c0.3,0,0.7,0,1,0.1c0.2,0,0.4,0,0.6,0c0.1,0,0.1,0,0.2,0V48.6z M48.6,31.7
	C48.6,31.7,48.6,31.7,48.6,31.7c-0.2,0-0.3,0-0.5,0c-0.3,0-0.7,0-1-0.1c-0.2,0-0.4,0-0.5-0.1c-0.3,0-0.6-0.1-0.9-0.1
	c-0.2,0-0.4-0.1-0.6-0.1c-0.3,0-0.6-0.1-0.9-0.1c-0.2,0-0.4-0.1-0.6-0.1c-0.3-0.1-0.6-0.1-0.8-0.2c-0.2,0-0.4-0.1-0.6-0.1
	c-0.3-0.1-0.5-0.1-0.8-0.2c-0.2,0-0.4-0.1-0.6-0.2c-0.3-0.1-0.5-0.2-0.8-0.2C40,30.1,39.8,30,39.6,30c-0.3-0.1-0.5-0.2-0.8-0.3
	c-0.2-0.1-0.3-0.1-0.5-0.2c-0.1,0-0.2-0.1-0.2-0.1c2.6-6.5,6.4-11,10.5-11.8V31.7z M70.2,24.6c-0.7,0.6-1.5,1.1-2.3,1.7
	c0,0,0,0-0.1,0c-0.4,0.2-0.8,0.5-1.1,0.7c-0.1,0.1-0.2,0.1-0.3,0.2c-0.3,0.2-0.6,0.4-0.9,0.5c-0.1,0.1-0.3,0.1-0.4,0.2
	c-0.2,0.1-0.4,0.2-0.6,0.3c-1.6-4-3.7-7.3-6-9.6C62.7,19.8,66.8,21.8,70.2,24.6z M51.4,17.7c4.2,0.8,8,5.2,10.5,11.8
	c-0.1,0-0.1,0.1-0.2,0.1c-0.2,0.1-0.4,0.1-0.5,0.2c-0.3,0.1-0.5,0.2-0.8,0.3c-0.2,0.1-0.4,0.1-0.6,0.2c-0.3,0.1-0.5,0.2-0.8,0.2
	c-0.2,0.1-0.4,0.1-0.6,0.2c-0.3,0.1-0.5,0.1-0.8,0.2c-0.2,0-0.4,0.1-0.6,0.1c-0.3,0.1-0.5,0.1-0.8,0.2c-0.2,0-0.4,0.1-0.6,0.1
	c-0.3,0-0.5,0.1-0.8,0.1c-0.2,0-0.4,0.1-0.6,0.1c-0.3,0-0.6,0.1-0.8,0.1c-0.2,0-0.4,0-0.6,0.1c-0.3,0-0.6,0-0.9,0.1
	c-0.2,0-0.3,0-0.5,0c0,0,0,0-0.1,0V17.7z M51.4,34.4c0.1,0,0.1,0,0.2,0c0.2,0,0.3,0,0.5,0c0.4,0,0.7,0,1.1-0.1c0.2,0,0.4,0,0.6-0.1
	c0.3,0,0.6-0.1,0.9-0.1c0.2,0,0.4-0.1,0.6-0.1c0.3,0,0.6-0.1,0.9-0.1c0.2,0,0.4-0.1,0.7-0.1c0.3-0.1,0.6-0.1,0.8-0.2
	c0.2-0.1,0.5-0.1,0.7-0.2c0.3-0.1,0.5-0.1,0.8-0.2c0.2-0.1,0.5-0.1,0.7-0.2c0.3-0.1,0.5-0.2,0.8-0.2c0.2-0.1,0.5-0.2,0.7-0.2
	c0.3-0.1,0.5-0.2,0.7-0.3c0.2-0.1,0.5-0.2,0.7-0.3c1.6,4.8,2.5,10.5,2.7,16.6H51.4V34.4z M51.4,51.4h14.2
	c-0.1,6.1-1.1,11.8-2.7,16.6c0,0,0,0,0,0c-0.2-0.1-0.4-0.2-0.7-0.3c-0.3-0.1-0.5-0.2-0.8-0.3c-0.2-0.1-0.4-0.1-0.6-0.2
	c-0.3-0.1-0.6-0.2-0.9-0.3c-0.2-0.1-0.4-0.1-0.6-0.2c-0.3-0.1-0.6-0.2-0.9-0.2c-0.2,0-0.4-0.1-0.6-0.1c-0.3-0.1-0.6-0.1-0.9-0.2
	c-0.2,0-0.4-0.1-0.6-0.1c-0.3-0.1-0.7-0.1-1-0.2c-0.2,0-0.3-0.1-0.5-0.1c-0.4-0.1-0.8-0.1-1.1-0.1c-0.1,0-0.3,0-0.4,0
	c-0.5,0-0.9-0.1-1.4-0.1c-0.1,0-0.1,0-0.2,0c-0.1,0-0.1,0-0.2,0V51.4z M51.4,82.3v-14c0,0,0,0,0,0c0.2,0,0.5,0,0.7,0
	c0.2,0,0.5,0,0.7,0c0.2,0,0.5,0,0.7,0.1c0.2,0,0.5,0,0.7,0.1c0.2,0,0.5,0.1,0.7,0.1c0.2,0,0.5,0.1,0.7,0.1c0.2,0,0.5,0.1,0.7,0.1
	c0.2,0,0.5,0.1,0.7,0.1c0.2,0,0.4,0.1,0.7,0.2c0.2,0.1,0.5,0.1,0.7,0.2c0.2,0.1,0.4,0.1,0.6,0.2c0.2,0.1,0.5,0.1,0.7,0.2
	c0.2,0.1,0.4,0.1,0.6,0.2c0.2,0.1,0.5,0.2,0.7,0.3c0.2,0.1,0.4,0.1,0.6,0.2c0.1,0,0.1,0.1,0.2,0.1C59.3,77.1,55.6,81.5,51.4,82.3z
	 M58.5,81.4c2.4-2.3,4.4-5.6,6-9.6c0.2,0.1,0.4,0.2,0.6,0.3c0.1,0.1,0.3,0.2,0.4,0.2c0.3,0.2,0.6,0.3,0.9,0.5
	c0.1,0.1,0.2,0.1,0.3,0.2c0.4,0.2,0.7,0.5,1.1,0.7c0,0,0.1,0,0.1,0.1c0.8,0.5,1.5,1.1,2.3,1.7C66.8,78.2,62.7,80.2,58.5,81.4z
	 M72.4,73.6c0,0-0.1-0.1-0.1-0.1c-0.2-0.2-0.4-0.3-0.6-0.5c-0.2-0.2-0.4-0.3-0.6-0.5c-0.2-0.2-0.4-0.3-0.7-0.5
	c-0.2-0.1-0.4-0.3-0.6-0.4c-0.2-0.2-0.4-0.3-0.7-0.4c-0.2-0.1-0.4-0.3-0.6-0.4c-0.2-0.1-0.5-0.3-0.7-0.4c-0.2-0.1-0.4-0.3-0.7-0.4
	c-0.2-0.1-0.5-0.2-0.7-0.4c-0.2-0.1-0.5-0.2-0.7-0.4c-0.1,0-0.2-0.1-0.2-0.1c1.7-5.1,2.7-11.2,2.8-17.8h14.2
	C82.1,59.8,78.5,67.8,72.4,73.6z M68.3,48.6C68.2,42,67.1,36,65.5,30.9c0.1,0,0.2-0.1,0.3-0.1c0.2-0.1,0.4-0.2,0.7-0.3
	c0.2-0.1,0.5-0.2,0.7-0.4c0.2-0.1,0.4-0.2,0.6-0.4c0.2-0.1,0.5-0.3,0.7-0.4c0.2-0.1,0.4-0.3,0.6-0.4c0.2-0.1,0.5-0.3,0.7-0.4
	c0.2-0.1,0.4-0.3,0.6-0.4c0.2-0.2,0.4-0.3,0.7-0.5c0.2-0.1,0.4-0.3,0.6-0.4c0.2-0.2,0.4-0.3,0.7-0.5c0,0,0.1-0.1,0.1-0.1
	c6.1,5.8,9.7,13.8,10.1,22.2H68.3z"/>
</svg>
