<?xml version="1.0" encoding="utf-8"?>
<!-- Generator: Adobe Illustrator 25.1.0, SVG Export Plug-In . SVG Version: 6.00 Build 0)  -->
<svg version="1.1" id="Layer_1" xmlns="http://www.w3.org/2000/svg" xmlns:xlink="http://www.w3.org/1999/xlink" x="0px" y="0px"
	 viewBox="0 0 100 100" style="enable-background:new 0 0 100 100;" xml:space="preserve">
<style type="text/css">
	.st0{fill-rule:evenodd;clip-rule:evenodd;}
	.st1{fill:none;}
	.st2{fill:none;stroke:#FFFFFF;stroke-width:2;stroke-miterlimit:10;}
	.st3{fill:none;stroke:#FF671D;stroke-width:0.75;stroke-miterlimit:10;}
</style>
<path d="M50,0C22.4,0,0,22.4,0,50s22.4,50,50,50c27.6,0,50-22.4,50-50S77.6,0,50,0z"/>
<path class="st2" d="M32.8,50H15.7c0,10.3,4.5,19.4,11.6,25.7c2.6-2.3,5.6-4.2,8.8-5.6C34.1,64.4,32.8,57.5,32.8,50z"/>
<path class="st2" d="M67.2,50h17.2c0-10.3-4.5-19.4-11.6-25.7c-2.6,2.3-5.6,4.2-8.8,5.6C65.9,35.6,67.2,42.5,67.2,50z"/>
<path class="st2" d="M84.3,50H67.2c0,7.5-1.2,14.4-3.3,20.1c3.2,1.4,6.2,3.3,8.8,5.6C79.8,69.4,84.3,60.3,84.3,50z"/>
<path class="st2" d="M36.1,29.9c-3.2-1.4-6.2-3.3-8.8-5.6C20.2,30.6,15.7,39.7,15.7,50h17.2C32.8,42.5,34.1,35.6,36.1,29.9z"/>
<path class="st2" d="M63.9,29.9c3.2-1.4,6.2-3.3,8.8-5.6c-6-5.3-14-8.6-22.7-8.6C55.7,15.7,60.8,21.3,63.9,29.9z"/>
<path class="st2" d="M50,15.7L50,15.7c-8.7,0-16.6,3.2-22.7,8.6c2.6,2.3,5.6,4.2,8.8,5.6C39.2,21.3,44.3,15.7,50,15.7z"/>
<path class="st2" d="M50,84.3c-5.7,0-10.8-5.6-13.9-14.2c-3.2,1.4-6.2,3.3-8.8,5.6C33.4,81.1,41.3,84.3,50,84.3L50,84.3z"/>
<path class="st2" d="M50,84.3c8.7,0,16.6-3.2,22.7-8.6c-2.6-2.3-5.6-4.2-8.8-5.6C60.8,78.7,55.7,84.3,50,84.3z"/>
<path class="st2" d="M50,32.8V50h17.2c0-7.5-1.2-14.4-3.3-20.1C59.7,31.8,54.9,32.8,50,32.8z"/>
<path class="st2" d="M50,67.2c4.9,0,9.7,1.1,13.9,2.9c2-5.6,3.3-12.6,3.3-20.1H50V67.2z"/>
<path class="st2" d="M50,32.8c-4.9,0-9.7-1.1-13.9-2.9c-2,5.6-3.3,12.6-3.3,20.1H50V32.8z"/>
<path class="st2" d="M50,50H32.8c0,7.5,1.2,14.4,3.3,20.1c4.3-1.9,9-2.9,13.9-2.9V50z"/>
<path class="st2" d="M50,15.7c-5.7,0-10.8,5.6-13.9,14.2c4.3,1.9,9,2.9,13.9,2.9V15.7z"/>
<path class="st2" d="M63.9,29.9c-3.1-8.6-8.2-14.2-13.9-14.2c0,0,0,0,0,0s0,0,0,0v17.2C54.9,32.8,59.7,31.8,63.9,29.9z"/>
<path class="st2" d="M50,84.3C50,84.3,50,84.3,50,84.3C50,84.3,50,84.3,50,84.3c5.7,0,10.8-5.6,13.9-14.2c-4.3-1.9-9-2.9-13.9-2.9
	V84.3z"/>
<path class="st2" d="M36.1,70.1c3.1,8.6,8.2,14.2,13.9,14.2V67.2C45.1,67.2,40.3,68.2,36.1,70.1z"/>
</svg>
