<?xml version="1.0" encoding="utf-8"?>
<!-- Generator: Adobe Illustrator 25.1.0, SVG Export Plug-In . SVG Version: 6.00 Build 0)  -->
<svg version="1.1" id="Layer_1" xmlns="http://www.w3.org/2000/svg" xmlns:xlink="http://www.w3.org/1999/xlink" x="0px" y="0px"
	 viewBox="0 0 100 100" style="enable-background:new 0 0 100 100;" xml:space="preserve">
<style type="text/css">
	.st0{fill-rule:evenodd;clip-rule:evenodd;}
</style>
<path d="M50,0C22.4,0,0,22.4,0,50s22.4,50,50,50c27.6,0,50-22.4,50-50S77.6,0,50,0z M81.2,65.7c-0.7,2.8-3,5-5.8,5.8
	C70.4,72.8,50,72.8,50,72.8s-20.4,0-25.4-1.4c-2.8-0.7-5-3-5.8-5.8C17.5,60.6,17.5,50,17.5,50s0-10.6,1.4-15.7c0.7-2.8,3-5,5.8-5.8
	c5.1-1.4,25.4-1.4,25.4-1.4s20.4,0,25.4,1.4c2.8,0.7,5,3,5.8,5.8c1.4,5.1,1.4,15.7,1.4,15.7S82.5,60.6,81.2,65.7z M43.5,59.8
	L60.4,50l-16.9-9.8V59.8z"/>
</svg>
