<?xml version="1.0" encoding="utf-8"?>
<!-- Generator: Adobe Illustrator 24.0.3, SVG Export Plug-In . SVG Version: 6.00 Build 0)  -->
<svg version="1.1" id="Layer_1" xmlns="http://www.w3.org/2000/svg" xmlns:xlink="http://www.w3.org/1999/xlink" x="0px" y="0px"
	 viewBox="0 0 120.78 117.79" style="enable-background:new 0 0 120.78 117.79;" xml:space="preserve">
<style type="text/css">
	.st0{fill-rule:evenodd;clip-rule:evenodd;fill:#FFFFFF;}
	.st1{fill:#FFFFFF;}
</style>
<title>GitHub-Dark</title>
<path class="st0" d="M60.39,0C27.04,0.01,0,27.05,0.01,60.4c0,25.99,16.64,49.06,41.29,57.28c3,0.56,4.13-1.31,4.13-2.9
	c0-1.44-0.06-6.2-0.08-11.24C28.55,107.19,25,96.41,25,96.41c-2.75-7-6.7-8.83-6.7-8.83c-5.48-3.75,0.41-3.68,0.41-3.68
	c6.06,0.43,9.26,6.23,9.26,6.23c5.38,9.23,14.12,6.56,17.57,5c0.54-3.9,2.11-6.57,3.83-8.08c-13.41-1.52-27.51-6.7-27.51-29.84
	c-0.08-6,2.14-11.8,6.22-16.21c-0.63-1.52-2.69-7.66,0.59-16c0,0,5.07-1.62,16.61,6.19c9.9-2.71,20.34-2.71,30.24,0
	C87.05,23.38,92.11,25,92.11,25c3.29,8.32,1.22,14.46,0.59,16c4.08,4.4,6.31,10.21,6.22,16.21c0,23.19-14.13,28.3-27.58,29.79
	c2.17,1.88,4.1,5.55,4.1,11.19c0,8.08-0.07,14.58-0.07,16.57c0,1.61,1.09,3.49,4.15,2.9c31.62-10.62,48.65-44.86,38.04-76.48
	C109.31,16.61,86.31,0.04,60.39,0z"/>
<path class="st1" d="M22.88,86.7c-0.24,0.3-0.67,0.38-1,0.18c-0.44-0.19-0.68-0.6-0.54-0.9s0.6-0.4,1-0.19S23.03,86.4,22.88,86.7z"
	/>
<path class="st1" d="M25.32,89.4c-0.58,0.22-1.23-0.06-1.45-0.64c-0.11-0.29-0.1-0.62,0.04-0.9c0.43-0.22,0.95-0.1,1.24,0.28
	C25.55,88.57,25.62,89.14,25.32,89.4z"/>
<path class="st1" d="M27.66,92.9c-0.37,0.26-1,0-1.35-0.52c-0.4-0.38-0.41-1.02-0.03-1.41c0.01-0.01,0.02-0.02,0.03-0.03
	c0.38-0.25,1,0,1.35,0.51S28.03,92.64,27.66,92.9L27.66,92.9z"/>
<path class="st1" d="M30.97,96.26c-0.34,0.37-1,0.27-1.56-0.23c-0.5-0.35-0.65-1.02-0.34-1.54c0.34-0.37,1-0.26,1.56,0.23
	S31.32,95.9,30.97,96.26z"/>
<path class="st1" d="M35.47,98.22c-0.15,0.47-0.83,0.68-1.51,0.48s-1.13-0.76-1-1.24c0.3-0.53,0.97-0.74,1.52-0.48
	C35.16,97.18,35.61,97.73,35.47,98.22L35.47,98.22z"/>
<path class="st1" d="M40.41,98.58c0,0.5-0.57,0.91-1.28,0.92s-1.31-0.39-1.32-0.88s0.57-0.91,1.29-0.92S40.41,98.08,40.41,98.58z"/>
<path class="st1" d="M45.01,97.79c0.08,0.49-0.42,1-1.13,1.12s-1.35-0.17-1.44-0.65s0.42-1,1.12-1.13S44.92,97.3,45.01,97.79z"/>
</svg>
