<?xml version="1.0" encoding="utf-8"?>
<!-- Generator: Adobe Illustrator 24.1.3, SVG Export Plug-In . SVG Version: 6.00 Build 0)  -->
<svg version="1.1" id="Layer_1" xmlns="http://www.w3.org/2000/svg" xmlns:xlink="http://www.w3.org/1999/xlink" x="0px" y="0px"
	 viewBox="0 0 385.51 76.54" style="enable-background:new 0 0 385.51 76.54;" xml:space="preserve">
<style type="text/css">
	.st0{fill:#FF671D;}
	.st1{fill:#00ABC8;}
	.st2{fill:#939598;}
	.st3{fill:#231F20;}
	.st4{fill:#FFFFFF;}
	.st5{fill:#00ABC7;}
	.st6{fill:#F26725;}
</style>
<g>
	<path d="M109.13,31.51c0-1.21,1.04-2.25,2.25-2.25h0.52c0.98,0,1.67,0.52,2.13,1.21l14.4,21.66l14.4-21.66
		c0.46-0.75,1.21-1.21,2.13-1.21h0.52c1.21,0,2.25,1.04,2.25,2.25v36.23c0,1.27-1.04,2.3-2.25,2.3c-1.27,0-2.3-1.09-2.3-2.3V37.67
		l-12.9,18.95c-0.52,0.75-1.09,1.15-1.9,1.15c-0.81,0-1.44-0.4-1.96-1.15l-12.84-18.89V67.8c0,1.27-0.98,2.25-2.25,2.25
		c-1.21,0-2.19-0.98-2.19-2.25V31.51z"/>
	<path d="M171.04,31.45c0-1.27,1.04-2.3,2.25-2.3c1.27,0,2.3,1.04,2.3,2.3v36.29c0,1.27-1.04,2.3-2.3,2.3
		c-1.21,0-2.25-1.04-2.25-2.3V31.45z"/>
	<path d="M198.92,31.51c0-1.21,1.04-2.25,2.25-2.25h0.63c1.04,0,1.67,0.52,2.3,1.32l24.48,31.22V31.39c0-1.21,0.98-2.25,2.25-2.25
		c1.21,0,2.19,1.04,2.19,2.25v36.4c0,1.21-0.86,2.13-2.07,2.13h-0.23c-0.98,0-1.67-0.58-2.36-1.38l-25-31.97V67.8
		c0,1.21-0.98,2.25-2.25,2.25c-1.21,0-2.19-1.04-2.19-2.25V31.51z"/>
	<path d="M256.34,31.45c0-1.27,1.04-2.3,2.25-2.3c1.27,0,2.3,1.04,2.3,2.3v36.29c0,1.27-1.04,2.3-2.3,2.3
		c-1.21,0-2.25-1.04-2.25-2.3V31.45z"/>
	<path d="M284.22,31.51c0-1.21,1.04-2.25,2.25-2.25h0.52c0.98,0,1.67,0.52,2.13,1.21l14.4,21.66l14.4-21.66
		c0.46-0.75,1.21-1.21,2.13-1.21h0.52c1.21,0,2.25,1.04,2.25,2.25v36.23c0,1.27-1.04,2.3-2.25,2.3c-1.27,0-2.3-1.09-2.3-2.3V37.67
		l-12.9,18.95c-0.52,0.75-1.09,1.15-1.9,1.15c-0.81,0-1.44-0.4-1.96-1.15l-12.84-18.89V67.8c0,1.27-0.98,2.25-2.25,2.25
		c-1.21,0-2.19-0.98-2.19-2.25V31.51z"/>
	<path d="M343.26,66.76l16.36-35.77c0.58-1.27,1.44-2.02,2.88-2.02h0.23c1.38,0,2.3,0.75,2.82,2.02L381.9,66.7
		c0.17,0.4,0.29,0.81,0.29,1.15c0,1.21-0.98,2.19-2.19,2.19c-1.09,0-1.84-0.75-2.25-1.67l-4.2-9.27h-22.12l-4.2,9.39
		c-0.4,0.98-1.15,1.56-2.19,1.56c-1.15,0-2.07-0.92-2.07-2.07C342.97,67.62,343.02,67.22,343.26,66.76z M371.77,54.95l-9.27-20.62
		l-9.27,20.62H371.77z"/>
</g>
<g>
	<polygon points="37.48,20.64 52.72,20.64 64.53,70.04 49.29,70.04 	"/>
	<polygon points="31.66,12.14 41.55,70.04 26.31,70.04 16.42,12.14 	"/>
	<polygon class="st0" points="3.32,70.04 18.57,70.04 31.66,12.14 17.7,6.49 	"/>
	<polygon class="st1" points="26.31,70.04 41.55,70.04 52.72,20.64 38.76,15 	"/>
	<polygon class="st2" points="59.82,23.51 49.29,70.04 64.53,70.04 73.78,29.15 	"/>
</g>
</svg>
