<svg id="Layer_1" enable-background="new 0 0 512 512" height="512" viewBox="0 0 512 512" width="512" xmlns="http://www.w3.org/2000/svg"><g><ellipse cx="256" cy="267.002" fill="#38c674" rx="244.998" ry="244.998" transform="matrix(.707 -.707 .707 .707 -113.818 259.222)"/><path d="m478.594 369.46-2.021-209.211c-31.607-65.185-91.26-114.234-163.276-131.492-3.186 9.048-4.806 18.673-4.711 28.542l1.29 133.469-111.779-161.863c-73.864 17.9-134.654 69.259-165.393 137.143v201.908c28.999 64.04 84.742 113.371 152.975 133.783 8.843-13.246 14.01-29.144 14.01-46.231v-130.436l117.126 169.605c1.947 2.813 4.025 5.49 6.209 8.042 69.195-19.637 125.909-68.928 155.57-133.259z" fill="#1ba552"/><path d="m452.024 413.982-3.46-358.035c-.146-15.084-6.145-29.206-16.892-39.766-10.776-10.589-25.072-16.322-40.145-16.178-31.149.302-56.245 25.89-55.942 57.037l1.893 195.806c.075 7.785-9.97 10.97-14.394 4.563l-160.401-232.271c-14.125-20.455-39.559-29.229-63.298-21.831-23.734 7.398-39.68 29.072-39.68 53.933v356.389c25.549 34.149 59.807 61.397 99.473 78.481 8.416-9.867 13.512-22.647 13.512-36.602v-191.718c0-7.746 9.992-10.861 14.394-4.487l151.931 220.005c3.579 5.169 7.686 9.686 12.191 13.503 40.215-16.976 74.949-44.383 100.818-78.829z" fill="#fff2bd"/><path d="m448.564 55.946c-.146-15.084-6.145-29.206-16.892-39.766-10.776-10.588-25.072-16.321-40.145-16.177-7.836.076-15.288 1.755-22.05 4.718-.019.048-10.603 26.324 13.957 31.304l30.913 26.225s10.09 24.271 34.384 11.011z" fill="#fffbeb"/><path d="m452.024 413.982-1.053-108.92c-1.387-.279-2.831-.255-4.225.145-11.968 3.431-21.482-5.826-26.447-12.289-2.306-3.001-6.204-4.199-9.821-3.084-16.759 5.166-29.194-7.689-34.974-15.537-2.17-2.947-5.885-4.372-9.437-3.492-21.131 5.233-28.589-17.959-28.589-17.959.075 7.785-9.97 10.97-14.394 4.564l-160.401-232.272c-14.125-20.455-39.559-29.229-63.298-21.831-23.734 7.398-39.68 29.072-39.68 53.933v356.389c25.549 34.149 59.807 61.397 99.473 78.481 8.416-9.867 13.512-22.647 13.512-36.602v-191.718c0-7.746 9.992-10.861 14.394-4.487l151.931 220.005c3.579 5.169 7.686 9.686 12.191 13.503 40.215-16.976 74.949-44.383 100.818-78.829z" fill="#ffdd40"/><path d="m172.69 455.507v-144.148c-1.226-.496-2.577-.67-3.922-.442-14.535 2.458-23.555-6.73-27.687-12.523-1.742-2.442-4.798-3.555-7.719-2.875-20.38 4.741-32.057-9.801-36.811-17.831-1.565-2.644-4.644-4.041-7.664-3.47-12.217 2.307-20.35-4.886-24.858-10.904-1.109-1.48-2.661-2.395-4.324-2.746v153.06c25.549 34.149 59.807 61.397 99.473 78.481 8.415-9.867 13.512-22.647 13.512-36.602z" fill="#ffc839"/><path d="m213.347 98.502-50.663-73.364c-14.126-20.455-39.56-29.229-63.299-21.831-6.207 1.934-11.875 4.854-16.871 8.543-.193 1.685-2.553 25.785 19.946 27.929 23.316 2.221 79.214 73.178 79.214 73.178s23.227 11.264 31.673-14.455z" fill="#fff2bd"/><path d="m414.289 56.278c-.119-12.269-10.113-22.127-22.43-22-12.269.119-22.119 10.161-22 22.431l3.224 333.422-238.605-345.516c-5.524-8-15.61-11.478-24.892-8.585-9.283 2.894-15.605 11.487-15.605 21.209v393.522c10.18 8.983 21.111 17.13 32.689 24.341 6.988-3.743 11.743-11.112 11.743-19.595v-327.001l228.784 331.293c6.189 8.94 14.042 12.676 21.275 13.327 9.964-6.417 19.432-13.538 28.335-21.29.785-3.044 1.211-6.315 1.211-9.774 0-.072-.001-.143-.001-.215z" fill="#ffdd40"/><path d="m418.019 442.061c0-.072-.001-.143-.001-.215l-1.467-151.748c-1.89-.762-4.022-.896-6.072-.264-16.759 5.166-29.194-7.689-34.974-15.537-.942-1.279-2.184-2.25-3.569-2.891l1.148 118.725-238.606-345.516c-5.524-8-15.61-11.478-24.892-8.585-9.283 2.894-15.605 11.487-15.605 21.209v393.522c10.18 8.983 21.111 17.13 32.689 24.341 6.988-3.743 11.743-11.112 11.743-19.595v-327.001l228.784 331.293c6.189 8.94 14.042 12.676 21.275 13.327 9.964-6.417 19.432-13.538 28.335-21.29.786-3.045 1.212-6.316 1.212-9.775z" fill="#ffc839"/><path d="m138.413 455.507v-159.38c-1.529-.769-3.311-1.013-5.052-.608-20.38 4.741-32.057-9.801-36.811-17.831-.638-1.078-1.535-1.934-2.57-2.549v175.622c10.18 8.983 21.111 17.13 32.689 24.341 6.99-3.743 11.744-11.113 11.744-19.595z" fill="#ffb332"/><circle cx="278.919" cy="85.796" fill="#70f2a4" r="12.375"/><circle cx="258.309" cy="480.557" fill="#50dd89" r="17.933"/><circle cx="251.25" cy="39.779" fill="#50dd89" r="8.25"/><circle cx="225.998" cy="435.282" fill="#70f2a4" r="8.25"/></g></svg>