<svg id="Capa_1" enable-background="new 0 0 512 512" height="512" viewBox="0 0 512 512" width="512" xmlns="http://www.w3.org/2000/svg"><g><g><g><g><path d="m434.522 319.831c-15.996-11.065-37.596-9.138-51.403 4.628l-67.245 67.87c2.815-5.487 4.402-11.697 4.402-18.272 0-22.201-18.111-40.262-40.361-40.262l-128.103-.156c-17.933 0-29.765 3.362-37.235 10.582-7.302 7.057-8.631 16.013-9.699 23.21-.116.781-.231 1.551-.35 2.307h-6.413c-1.164-4.232-5.04-7.341-9.642-7.341h-78.473c-5.523 0-10 4.477-10 10v82.287c0 5.523 4.477 10 10 10h78.472c4.76 0 8.744-3.326 9.753-7.782h13.148c7.178 11.077 19.544 17.939 33.098 17.939h189.589c8.313 0 16.129-3.225 22.051-9.122l83.917-84.545c8.456-8.425 12.696-20.068 11.634-31.942-1.062-11.886-7.31-22.602-17.14-29.401zm-356.05 124.852h-58.472v-62.287h58.472zm347.4-77.639-83.915 84.543c-2.105 2.097-4.91 3.252-7.897 3.252h-189.59c-7.842 0-14.872-4.645-17.912-11.834-1.564-3.701-5.192-6.105-9.21-6.105h-18.876v-47.164h13.944c4.212 0 7.972-2.639 9.404-6.599 1.603-4.432 2.261-8.862 2.841-12.771.868-5.847 1.517-9.543 3.815-11.765 2.342-2.264 8.292-4.963 23.323-4.963l128.104.156c11.233 0 20.373 9.089 20.373 20.262 0 11.172-9.14 20.261-20.373 20.261-.026 0-.051.001-.076.001h-83.11c-5.523 0-10 4.477-10 10s4.477 10 10 10l121.35.004h.001c2.668 0 5.226-1.066 7.103-2.962l72.111-72.782c6.929-6.907 17.803-7.875 25.862-2.3 4.932 3.411 8.066 8.781 8.599 14.733.53 5.943-1.595 11.772-5.871 16.033z"/><path d="m502 55.099h-42.96c-7.178-11.077-19.544-17.939-33.098-17.939h-54.561c-5.522 0-10 4.477-10 10s4.478 10 10 10h54.561c7.842 0 14.873 4.645 17.913 11.833 1.564 3.701 5.192 6.105 9.21 6.105h38.935v47.164h-34.003c-4.212 0-7.972 2.639-9.404 6.599-1.603 4.432-2.26 8.862-2.84 12.771-.868 5.847-1.517 9.542-3.815 11.765-2.343 2.264-8.293 4.963-23.324 4.963l-128.103-.156c-11.234 0-20.374-9.089-20.374-20.262 0-11.172 9.14-20.261 20.374-20.261.026 0 .051-.001.077-.001h83.11c5.522 0 10-4.477 10-10s-4.478-10-10-10l-121.349-.004h-.001c-2.668 0-5.226 1.066-7.104 2.962l-72.114 72.782c-6.928 6.907-17.804 7.876-25.861 2.3-4.932-3.411-8.066-8.781-8.599-14.732-.532-5.942 1.594-11.771 5.87-16.032l83.916-84.544c2.105-2.097 4.91-3.252 7.896-3.252h44.35c5.522 0 10-4.477 10-10s-4.478-10-10-10h-44.35c-8.313 0-16.13 3.225-22.051 9.122l-83.916 84.545c-8.457 8.425-12.698 20.068-11.635 31.943 1.063 11.884 7.311 22.6 17.141 29.398 6.945 4.805 14.946 7.16 22.908 7.16 5.145 0 10.273-.984 15.089-2.925-.003.313-.005.625-.005.938 0 56.406 45.884 102.296 102.283 102.296s102.284-45.89 102.284-102.296c0-6.421-.593-12.786-1.769-19.032l41.919.051c17.934 0 29.765-3.362 37.235-10.582 7.302-7.057 8.631-16.013 9.699-23.209.115-.781.229-1.551.35-2.307h36.116c5.522 0 10-4.477 10-10v-67.163c0-5.523-4.478-10-10-10zm-211.501 123.106 15.888.019c3.638 5.71 5.546 12.251 5.546 19.117 0 19.725-16.044 35.773-35.766 35.773s-35.768-16.048-35.768-35.773c0-13.838 8.114-26.376 20.313-32.258 7.388 8.059 18.007 13.122 29.787 13.122zm-14.332 101.433c-45.371 0-82.283-36.918-82.283-82.296 0-6.276.707-12.518 2.102-18.573l58.552-59.096c-2.813 5.486-4.401 11.697-4.401 18.27 0 3.272.394 6.454 1.136 9.502-18.575 9.325-30.872 28.625-30.872 49.897 0 30.753 25.017 55.773 55.768 55.773 30.749 0 55.766-25.02 55.766-55.773 0-6.619-1.137-13.044-3.344-19.09l27.646.034c1.471 6.211 2.215 12.596 2.215 19.056-.001 45.378-36.913 82.296-82.285 82.296z"/><path d="m316.62 50.98c1.578 3.849 5.572 6.382 9.729 6.165 4.122-.215 7.756-3.003 9.021-6.93 1.276-3.958-.105-8.46-3.424-10.986-3.381-2.573-8.096-2.72-11.637-.379-3.923 2.595-5.497 7.791-3.689 12.13z"/></g></g></g></g></svg>