<?xml version="1.0" encoding="utf-8"?>
<!-- Generator: Adobe Illustrator 24.0.3, SVG Export Plug-In . SVG Version: 6.00 Build 0)  -->
<svg version="1.1" id="Layer_1" xmlns="http://www.w3.org/2000/svg" xmlns:xlink="http://www.w3.org/1999/xlink" x="0px" y="0px"
	 viewBox="0 0 402.7 402.7" style="enable-background:new 0 0 402.7 402.7;" xml:space="preserve">
<style type="text/css">
	.st0{fill:none;stroke:#18171C;stroke-width:0.5;stroke-linejoin:round;}
	.st1{fill:none;stroke:#393C3E;stroke-width:0.5;stroke-miterlimit:10;}
	.st2{fill:#FFFFFF;stroke:#393C3E;stroke-width:0.5;stroke-miterlimit:10;}
	.st3{fill:none;stroke:#393C3E;stroke-width:0.5;stroke-linejoin:round;}
</style>
<title>Icons for app 1</title>
<circle class="st0" cx="201.4" cy="201.4" r="177.9"/>
<line class="st1" x1="142.5" y1="142.5" x2="260.2" y2="260.2"/>
<circle class="st2" cx="271.1" cy="271.1" r="15.3"/>
<circle class="st2" cx="131.6" cy="131.6" r="15.3"/>
<line class="st1" x1="142.5" y1="260.2" x2="260.2" y2="142.5"/>
<circle class="st2" cx="271.1" cy="131.6" r="15.3"/>
<circle class="st2" cx="131.6" cy="271.1" r="15.3"/>
<line class="st1" x1="118.1" y1="201.4" x2="284.6" y2="201.4"/>
<ellipse transform="matrix(0.1602 -0.9871 0.9871 0.1602 53.159 465.2098)" class="st2" cx="300" cy="201.4" rx="15.3" ry="15.3"/>
<circle class="st2" cx="102.7" cy="201.4" r="15.3"/>
<line class="st1" x1="201.4" y1="284.6" x2="201.4" y2="118.1"/>
<path class="st2" d="M175.6,156.2h51.5c10.7,0,19.4,8.7,19.4,19.4v51.5c0,10.7-8.7,19.4-19.4,19.4h-51.5c-10.7,0-19.4-8.7-19.4-19.4
	v-51.5C156.2,164.9,164.9,156.2,175.6,156.2z"/>
<polygon class="st3" points="212.3,187.7 206.6,213.1 209.7,225.9 215.4,200.6 "/>
<polygon class="st3" points="200.5,187.7 200.5,187.7 200.5,187.7 "/>
<polygon class="st3" points="196,181.2 189.3,210.8 191.9,225.9 198.6,196.2 "/>
<polygon class="st3" points="185.2,176.8 184.3,181.2 184.3,181.2 184.3,181.2 174.1,225.9 185.9,225.9 189.3,210.8 196,181.2 "/>
<polygon class="st3" points="201.5,183.4 200.5,187.7 200.5,187.7 198.6,196.2 191.9,225.9 203.7,225.9 206.6,213.1 212.3,187.7 "/>
<polygon class="st3" points="217.8,190 215.4,200.6 209.7,225.9 221.4,225.9 228.6,194.3 "/>
<circle class="st2" cx="201.4" cy="102.8" r="15.3"/>
<circle class="st2" cx="201.4" cy="300" r="15.3"/>
<line class="st1" x1="201.4" y1="109.9" x2="201.4" y2="95.6"/>
<line class="st1" x1="271.1" y1="138.8" x2="271.1" y2="124.5"/>
<line class="st1" x1="300" y1="208.5" x2="300" y2="194.2"/>
<line class="st1" x1="271.1" y1="278.2" x2="271.1" y2="263.9"/>
<line class="st1" x1="201.4" y1="307.1" x2="201.4" y2="292.8"/>
<line class="st1" x1="131.6" y1="278.2" x2="131.6" y2="263.9"/>
<line class="st1" x1="102.7" y1="208.5" x2="102.7" y2="194.2"/>
<line class="st1" x1="131.6" y1="138.8" x2="131.6" y2="124.5"/>
</svg>
