<?xml version="1.0" encoding="utf-8"?>
<!-- Generator: Adobe Illustrator 24.0.3, SVG Export Plug-In . SVG Version: 6.00 Build 0)  -->
<svg version="1.1" id="Layer_1" class="s-ion-icon" xmlns="http://www.w3.org/2000/svg" xmlns:xlink="http://www.w3.org/1999/xlink" x="0px" y="0px"
	 viewBox="0 0 841.89 595.28" style="enable-background:new 0 0 841.89 595.28;" xml:space="preserve">
<style type="text/css">
	.st0{fill:#FFFFFF;}
	.st1{fill:#424449;}
	.st2{fill:#FF671D;}
	.st3{fill:#00ABC7;}
	.st4{fill:#929396;}
</style>
<title>Minima Dark Landscape</title>
<path id="Path_1" class="st0" d="M329.72,290.26c0.03-1.34,1.11-2.42,2.45-2.45h0.56c0.95,0.01,1.84,0.51,2.33,1.33l15.71,23.62
	l15.68-23.63c0.48-0.83,1.37-1.33,2.32-1.32h0.57c1.34,0.03,2.42,1.11,2.45,2.45v39.52c0,1.36-1.09,2.48-2.45,2.51
	c-1.37-0.03-2.48-1.14-2.51-2.51V297l-14.08,20.67c-0.42,0.76-1.21,1.24-2.07,1.26c-0.88-0.02-1.69-0.5-2.14-1.26l-14-20.61v32.81
	c0,1.34-1.09,2.42-2.42,2.42c-1.33,0-2.42-1.08-2.42-2.42l0,0L329.72,290.26z"/>
<path id="Path_2" class="st0" d="M397.26,290.2c0-1.38,1.12-2.5,2.5-2.5s2.5,1.12,2.5,2.5v39.59c0,1.38-1.12,2.5-2.5,2.5
	s-2.5-1.12-2.5-2.5V290.2z"/>
<path id="Path_3" class="st0" d="M427.68,290.26c0.03-1.34,1.11-2.42,2.45-2.45h0.69c1.03,0.02,1.98,0.58,2.51,1.47l26.72,34v-33.15
	c0-1.34,1.09-2.42,2.42-2.42c1.33,0,2.42,1.08,2.42,2.42v39.72c0.05,1.23-0.9,2.27-2.13,2.32h-0.39c-1.04-0.09-1.99-0.64-2.57-1.51
	l-27.28-34.88v34.06c0.09,1.33-0.93,2.48-2.26,2.57s-2.48-0.93-2.57-2.26c-0.01-0.1-0.01-0.21,0-0.31L427.68,290.26z"/>
<path id="Path_4" class="st0" d="M490.33,290.2c0-1.38,1.12-2.5,2.5-2.5s2.5,1.12,2.5,2.5v39.59c0,1.38-1.12,2.5-2.5,2.5
	s-2.5-1.12-2.5-2.5V290.2z"/>
<path id="Path_5" class="st0" d="M520.75,290.26c0.03-1.34,1.11-2.42,2.45-2.45h0.56c0.95,0.01,1.84,0.51,2.33,1.33l15.71,23.62
	l15.73-23.63c0.48-0.83,1.37-1.33,2.33-1.32h0.56c1.34,0.02,2.43,1.11,2.45,2.45v39.52c0,1.36-1.09,2.48-2.45,2.51
	c-1.38-0.03-2.48-1.13-2.51-2.51V297l-14.08,20.67c-0.42,0.76-1.21,1.24-2.07,1.26c-0.88-0.02-1.69-0.5-2.14-1.26l-14-20.61v32.81
	c0,1.34-1.08,2.42-2.42,2.42c-1.34,0-2.42-1.08-2.42-2.42l0,0L520.75,290.26z"/>
<path id="Path_6" class="st0" d="M585.15,328.72l17.85-39c0.45-1.34,1.73-2.23,3.14-2.19h0.25c1.4-0.03,2.65,0.86,3.08,2.19
	l17.85,39c0.18,0.39,0.29,0.82,0.31,1.25c0,1.32-1.07,2.39-2.39,2.39l0,0l0,0c-1.11-0.05-2.08-0.77-2.45-1.82l-4.59-10.12h-24.13
	l-4.59,10.24c-0.34,1.02-1.3,1.71-2.38,1.7c-1.24,0.01-2.26-1-2.27-2.24l0,0C584.82,329.63,584.93,329.15,585.15,328.72z
	 M616.26,315.83l-10.12-22.49L596,315.83H616.26z"/>
<path id="Path_7" class="st1" d="M251.53,278.4h16.65l12.88,53.9h-16.65L251.53,278.4z"/>
<path id="Path_8" class="st1" d="M245.19,269.11L256,332.28h-16.69l-10.77-63.17H245.19z"/>
<path id="Path_9" class="st2" d="M214.26,332.3h16.65l14.29-63.17L230,263L214.26,332.3z"/>
<path id="Path_10" class="st3" d="M239.34,332.3H256l12.19-53.89l-15.24-6.16L239.34,332.3z"/>
<path id="Path_11" class="st4" d="M275.9,281.53l-11.48,50.77h16.65l10.09-44.61L275.9,281.53z"/>
</svg>
