<svg id="Capa_1" enable-background="new 0 0 512 512" height="512" viewBox="0 0 512 512" width="512" xmlns="http://www.w3.org/2000/svg"><circle cx="75.967" cy="436.033" r="15.001"/><path d="m507.606 199.409-120.009-120.009c-4.242-4.244-10.607-5.549-16.178-3.321l-42.507 17.003 17.003-42.507c2.229-5.572.922-11.935-3.321-16.178l-30.003-30.003c-5.858-5.859-15.357-5.859-21.215 0l-138.58 138.58c-29.247 29.247-29.247 76.834 0 106.081l7.826 7.826c6.546 6.547 5.684 17.358-1.839 22.779-53.108 38.273-119.961 87.442-136.86 104.334-29.233 29.245-29.233 76.831.004 106.081 29.248 29.235 76.833 29.231 106.082-.004 16.893-16.901 66.059-83.751 104.329-136.855 5.414-7.511 16.222-8.396 22.78-1.84l7.826 7.826c29.246 29.247 76.835 29.247 106.081 0l52.967-52.967v68.185c0 24.578 19.71 45.033 43.938 45.598 25.386.587 46.07-19.788 46.07-44.99v-165.012c0-3.978-1.581-7.794-4.394-10.607zm-223.447 138.58-7.826-7.826c-19.618-19.619-52.133-16.966-68.334 5.513-52.415 72.732-89.304 121.277-101.203 133.181-17.55 17.542-46.107 17.543-63.652.004-17.542-17.55-17.542-46.106-.004-63.652 11.904-11.899 60.449-48.788 133.186-101.208 22.507-16.221 25.105-48.741 5.512-68.334l-7.826-7.826c-17.549-17.549-17.549-46.103 0-63.652l1.964-1.964 173.8 173.8-1.964 1.964c-17.55 17.548-46.104 17.548-63.653 0zm86.83-23.178-173.8-173.8 104.795-104.795 12.4 12.4-26.329 65.821c-4.879 12.196 7.261 24.396 19.5 19.5l65.821-26.329 28.152 28.152-6.963 6.964c-29.315 29.314-29.319 76.763 0 106.081l21.214 21.215zm111.009 60.217c0 8.337-6.841 15.2-15.367 14.997-8.07-.188-14.635-7.188-14.635-15.604v-104.401c0-3.978-1.581-7.794-4.394-10.607l-31.822-31.822c-17.549-17.549-17.549-46.103 0-63.652l6.964-6.963 59.254 59.254z"/></svg>