<?xml version="1.0" encoding="utf-8"?>
<!-- Generator: Adobe Illustrator 24.0.3, SVG Export Plug-In . SVG Version: 6.00 Build 0)  -->
<svg version="1.1" id="Layer_1" xmlns="http://www.w3.org/2000/svg" xmlns:xlink="http://www.w3.org/1999/xlink" x="0px" y="0px"
	 viewBox="0 0 48 48" style="enable-background:new 0 0 48 48;" xml:space="preserve">
<style type="text/css">
	.st0{fill:#FFFFFF;}
	.st1{fill:#231F20;}
</style>
<path class="st0" d="M24,0C10.74,0,0,10.74,0,24s10.74,24,24,24s24-10.74,24-24S37.26,0,24,0z"/>
<path class="st1" d="M35.94,13.2l-4.5,22.96c0,0-0.19,1.04-1.5,1.04c-0.7,0-1.04-0.32-1.04-0.32l-9.73-8.08l-4.76-2.4l-6.11-1.62
	c0,0-1.09-0.31-1.09-1.21c0-0.74,1.12-1.1,1.12-1.1L33.9,12.3c0,0,0.78-0.28,1.36-0.28c0.35,0,0.74,0.14,0.74,0.6
	C36,12.9,35.94,13.2,35.94,13.2z"/>
<path class="st0" d="M31.08,17.04c-0.2-0.26-0.58-0.31-0.84-0.11L14.4,26.4c0,0,2.53,7.07,2.92,8.29c0.38,1.22,0.7,1.25,0.7,1.25
	l1.15-7.15l11.8-10.92C31.22,17.68,31.27,17.3,31.08,17.04z"/>
</svg>
