<svg id="Layer_1" data-name="Layer 1" xmlns="http://www.w3.org/2000/svg" viewBox="0 0 233.34 233.34"><defs><style>.cls-1,.cls-2,.cls-3{fill:none;stroke:#fff;stroke-width:0.65px;}.cls-1{stroke-linecap:round;}.cls-1,.cls-2{stroke-linejoin:round;}.cls-3{stroke-miterlimit:10;}</style></defs><title>Icons for app 3_white on black</title><path class="cls-1" d="M163.59,140.71a23.05,23.05,0,1,0-23,23A23,23,0,0,0,163.59,140.71Zm-31,2.64,5.62,5.75,12.65-16.78" transform="translate(-25.06 -25.06)"/><path class="cls-2" d="M159.16,179.51h16V176H84V102H197.1v10.1h3.47V99.28A2.12,2.12,0,0,0,198.64,97H82.44a2.12,2.12,0,0,0-1.92,2.27v80.23h78.64Z" transform="translate(-25.06 -25.06)"/><path class="cls-2" d="M175.41,185.39h-108c.48,2.29,5.89,2.82,7.51,2.82H179.43A4.31,4.31,0,0,1,175.41,185.39Z" transform="translate(-25.06 -25.06)"/><path class="cls-2" d="M175.13,183.9v-4.39H69.52a2.23,2.23,0,0,0-2.18,2.26v3.62H175.41A4.11,4.11,0,0,1,175.13,183.9Z" transform="translate(-25.06 -25.06)"/><path class="cls-2" d="M175.23,116.41a4.31,4.31,0,0,1,4.28-4.3H197.1V102H84v74h91.14Z" transform="translate(-25.06 -25.06)"/><path class="cls-3" d="M210,112.11h-30.6a4.31,4.31,0,0,0-4.3,4.3V183.9a4.11,4.11,0,0,0,.28,1.49,4.31,4.31,0,0,0,4,2.81H210a4.31,4.31,0,0,0,4.3-4.3V116.41A4.32,4.32,0,0,0,210,112.11Z" transform="translate(-25.06 -25.06)"/><rect class="cls-3" x="153.54" y="94.2" width="32.26" height="61.82"/><polygon class="cls-2" points="174.24 119.42 171.85 129.98 173.13 135.35 175.52 124.78 174.24 119.42"/><polygon class="cls-2" points="169.32 119.42 169.32 119.42 169.32 119.42 169.32 119.42"/><polygon class="cls-2" points="167.44 116.67 164.64 129.06 165.72 135.35 168.52 122.96 167.44 116.67"/><polygon class="cls-2" points="162.94 114.85 162.53 116.67 162.53 116.67 162.53 116.67 158.3 135.35 163.22 135.35 164.64 129.06 167.44 116.67 162.94 114.85"/><polygon class="cls-2" points="169.73 117.59 169.32 119.42 169.32 119.42 168.52 122.96 165.72 135.35 170.63 135.35 171.85 129.98 174.24 119.42 169.73 117.59"/><polygon class="cls-2" points="176.52 120.34 175.52 124.78 173.13 135.35 178.04 135.35 181.03 122.16 176.52 120.34"/><circle class="cls-2" cx="116.67" cy="116.67" r="116.35"/></svg>