<?xml version="1.0" encoding="utf-8"?>
<!-- Generator: Adobe Illustrator 24.0.2, SVG Export Plug-In . SVG Version: 6.00 Build 0)  -->
<svg version="1.1" id="Layer_1" xmlns="http://www.w3.org/2000/svg" xmlns:xlink="http://www.w3.org/1999/xlink" x="0px" y="0px"
	 viewBox="0 0 25.9 25.9" style="enable-background:new 0 0 25.9 25.9;" xml:space="preserve">
<style type="text/css">
	.st0{fill:#DCDCDC;}
	.st1{fill:#FFFFFF;}
	.st2{fill-rule:evenodd;clip-rule:evenodd;fill:#221E1B;}
</style>
<g>
	<g id="Path_1593" transform="translate(1041.457 15.088)">
		<path class="st0" d="M-1028.5-14.1c-3.2,0-6.2,1.2-8.5,3.5s-3.5,5.3-3.5,8.5s1.2,6.2,3.5,8.5s5.3,3.5,8.5,3.5
			c3.2,0,6.2-1.2,8.5-3.5s3.5-5.3,3.5-8.5s-1.2-6.2-3.5-8.5C-1022.3-12.8-1025.3-14.1-1028.5-14.1 M-1028.5-15.1c7.2,0,13,5.8,13,13
			s-5.8,13-13,13s-13-5.8-13-13S-1035.7-15.1-1028.5-15.1z"/>
	</g>
</g>
<g>
	<polygon class="st1" points="11.6,15 15.1,13 11.6,10.9 	"/>
</g>
<path class="st2" d="M15.1,20.4c0,0,0.3,0,0.3-0.3c0-0.3,0-2,0-2.9c0-0.9-0.3-1.5-0.6-1.8c2.1-0.2,4.3-1,4.3-4.7c0-1-0.4-1.9-1-2.5
	C18.3,8,18.6,7,18.1,5.7c0,0-0.8-0.3-2.6,1c-0.8-0.2-1.6-0.3-2.4-0.3c-0.8,0-1.6,0.1-2.4,0.3c-1.8-1.2-2.6-1-2.6-1
	C7.6,7,8,8,8.1,8.2c-0.6,0.7-1,1.5-1,2.5c0,3.6,2.2,4.4,4.3,4.7c-0.3,0.2-0.5,0.7-0.6,1.3C10.3,17,8.9,17.4,8,15.9
	c0,0-0.5-0.9-1.4-1c0,0-0.9,0-0.1,0.6c0,0,0.6,0.3,1,1.4c0,0,0.6,1.8,3.2,1.3c0,0.5,0,1.4,0,1.9c0,0.3,0.3,0.3,0.3,0.3H15.1z"/>
</svg>
