<?xml version="1.0" encoding="utf-8"?>
<!-- Generator: Adobe Illustrator 23.0.6, SVG Export Plug-In . SVG Version: 6.00 Build 0)  -->
<svg version="1.1" id="Layer_1" xmlns="http://www.w3.org/2000/svg" xmlns:xlink="http://www.w3.org/1999/xlink" x="0px" y="0px"
	 viewBox="0 0 25.91 25.91" style="enable-background:new 0 0 25.91 25.91;" xml:space="preserve">
<style type="text/css">
	.st0{fill:#FFFFFF;}
	.st1{fill:#DCDCDC;}
	.st2{fill:#231F20;}
</style>
<g>
	<g id="Path_1580">
		<path class="st0" d="M12.96,25.41c-3.33,0-6.46-1.3-8.81-3.65S0.5,16.28,0.5,12.96S1.8,6.5,4.15,4.15S9.63,0.5,12.96,0.5
			s6.46,1.3,8.81,3.65s3.65,5.48,3.65,8.81s-1.3,6.46-3.65,8.81S16.28,25.41,12.96,25.41z"/>
		<path class="st1" d="M12.96,1C9.76,1,6.76,2.24,4.5,4.5S1,9.76,1,12.96s1.24,6.2,3.5,8.46s5.26,3.5,8.46,3.5s6.2-1.24,8.46-3.5
			s3.5-5.26,3.5-8.46s-1.24-6.2-3.5-8.46S16.15,1,12.96,1 M12.96,0c7.16,0,12.96,5.8,12.96,12.96s-5.8,12.96-12.96,12.96
			S0,20.11,0,12.96S5.8,0,12.96,0z"/>
	</g>
	<path id="Path_462" class="st2" d="M20.62,9c-0.53,0.23-1.08,0.39-1.66,0.45c0.6-0.36,1.05-0.93,1.27-1.6
		c-0.57,0.34-1.19,0.57-1.83,0.7c-1.09-1.16-2.92-1.22-4.08-0.12c-0.75,0.7-1.07,1.75-0.83,2.76C11.16,11.07,9,9.97,7.54,8.17
		c-0.77,1.32-0.37,3,0.89,3.85c-0.46-0.01-0.91-0.14-1.31-0.36c0,0.01,0,0.02,0,0.04c0,1.37,0.97,2.56,2.31,2.83
		c-0.42,0.11-0.87,0.13-1.3,0.05c0.38,1.17,1.46,1.98,2.69,2c-1.02,0.8-2.28,1.24-3.59,1.24c-0.23,0-0.46-0.01-0.69-0.04
		c3.81,2.44,8.88,1.34,11.33-2.48c0.85-1.32,1.3-2.86,1.3-4.43c0-0.13,0-0.25-0.01-0.37C19.74,10.08,20.23,9.58,20.62,9z"/>
</g>
</svg>
