<?xml version="1.0" encoding="utf-8"?>
<!-- Generator: Adobe Illustrator 24.0.3, SVG Export Plug-In . SVG Version: 6.00 Build 0)  -->
<svg version="1.1" id="Layer_1" xmlns="http://www.w3.org/2000/svg" xmlns:xlink="http://www.w3.org/1999/xlink" x="0px" y="0px"
	 viewBox="0 0 378.8 378.8" style="enable-background:new 0 0 378.8 378.8;" xml:space="preserve">
<style type="text/css">
	.st0{fill:none;stroke:#393C3E;stroke-width:0.5;stroke-linecap:round;stroke-linejoin:round;}
	.st1{fill:none;stroke:#18171C;stroke-width:0.5;stroke-linejoin:round;}
	.st2{fill:#FFFFFF;stroke:#393C3E;stroke-width:0.5;stroke-miterlimit:10;}
	.st3{fill:none;stroke:#393C3E;stroke-width:0.5;}
	.st4{fill:#393C3E;}
	.st5{fill:none;stroke:#393C3E;stroke-width:0.5;stroke-linejoin:round;}
</style>
<title>Icons for app 2</title>
<path class="st0" d="M222.8,187.8c0-19.5-15.8-35.3-35.2-35.3s-35.3,15.8-35.3,35.2s15.8,35.3,35.2,35.3c0,0,0,0,0,0
	C207,223.1,222.8,207.3,222.8,187.8z M175.4,191.8l8.6,8.8l19.3-25.7"/>
<path class="st1" d="M279.4,124.5c0.1-1.8-1.2-3.3-2.9-3.5H98.7c-1.8,0.2-3.1,1.7-3,3.5v122.7h183.6V124.5z"/>
<path class="st1" d="M279.4,124.5c0.1-1.8-1.2-3.3-2.9-3.5H98.7c-1.8,0.2-3.1,1.7-3,3.5v122.7h183.6V124.5z"/>
<path class="st1" d="M75.7,256.2c0.7,3.5,9,4.3,11.5,4.3H288c2.5,0,10.8-0.8,11.5-4.3H75.7z"/>
<path class="st1" d="M75.7,256.2c0.7,3.5,9,4.3,11.5,4.3H288c2.5,0,10.8-0.8,11.5-4.3H75.7z"/>
<path class="st1" d="M299.5,256.2v-5.5c0-1.9-1.5-3.4-3.3-3.5H216c-0.1,2.5-1,4.5-2,4.5h-52.8c-1.1,0-2-2-2.1-4.5H79
	c-1.9,0-3.4,1.6-3.3,3.5v5.5H299.5z"/>
<path class="st1" d="M299.5,256.2v-5.5c0-1.9-1.5-3.4-3.3-3.5H216c-0.1,2.5-1,4.5-2,4.5h-52.8c-1.1,0-2-2-2.1-4.5H79
	c-1.9,0-3.4,1.6-3.3,3.5v5.5H299.5z"/>
<rect x="100.3" y="128.6" class="st1" width="174.6" height="114.4"/>
<rect x="100.3" y="128.6" class="st1" width="174.6" height="114.4"/>
<path class="st1" d="M95.8,253c0,0.6-0.4,1-1,1s-1-0.4-1-1v-2.5c0-0.6,0.4-1,1-1s1,0.4,1,1V253z M89.6,253c0,0.6-0.4,1-1,1
	s-1-0.4-1-1v-2.5c0-0.6,0.4-1,1-1s1,0.4,1,1V253z"/>
<rect x="186.3" y="123.1" class="st1" width="2.5" height="2.9"/>
<path class="st2" d="M293.7,260.5H258 M300.4,240.1v-89.4c0-3.6-2.9-6.6-6.6-6.6h-46.8c-3.6,0-6.6,2.9-6.6,6.6v103.2
	c0,3.6,3,6.6,6.6,6.6h46.8c3.6,0,6.6-2.9,6.6-6.6V240.1z"/>
<rect x="243.7" y="155" class="st2" width="53.5" height="94.5"/>
<polygon class="st3" points="262.7,148.9 262.7,148.9 262.7,150.8 278.2,150.8 278.2,148.9 "/>
<path class="st4" d="M283.4,151.1c0.7,0,1.2-0.5,1.2-1.2c0-0.7-0.5-1.2-1.2-1.2c-0.7,0-1.2,0.5-1.2,1.2c0,0,0,0,0,0
	C282.2,150.5,282.8,151.1,283.4,151.1C283.4,151.1,283.4,151.1,283.4,151.1"/>
<path class="st4" d="M289.6,151.1c0.7,0,1.2-0.5,1.2-1.2c0-0.7-0.5-1.2-1.2-1.2c-0.7,0-1.2,0.5-1.2,1.2c0,0,0,0,0,0
	C288.4,150.5,289,151.1,289.6,151.1C289.6,151.1,289.6,151.1,289.6,151.1"/>
<polygon class="st5" points="277.4,193.6 273.8,209.7 275.7,218 279.4,201.8 "/>
<polygon class="st5" points="269.9,193.6 269.9,193.6 269.9,193.6 "/>
<polygon class="st5" points="267,189.4 262.8,208.3 264.4,218 268.7,199 "/>
<polygon class="st5" points="260.1,186.6 259.5,189.4 259.5,189.4 259.5,189.4 253.1,218 260.6,218 262.8,208.3 267,189.4 "/>
<polygon class="st5" points="270.5,190.8 269.9,193.6 269.9,193.6 268.7,199 264.4,218 271.9,218 273.8,209.7 277.4,193.6 "/>
<polygon class="st5" points="280.9,195 279.4,201.8 275.7,218 283.2,218 287.8,197.8 "/>
<circle class="st1" cx="189.4" cy="189.4" r="177.9"/>
</svg>
