<svg id="Layer_1" data-name="Layer 1" xmlns="http://www.w3.org/2000/svg" viewBox="0 0 233.29 233.29"><defs><style>.cls-1,.cls-2,.cls-3{fill:none;stroke:#231f20;stroke-width:0.6px;}.cls-1{stroke-linecap:round;}.cls-1,.cls-2{stroke-linejoin:round;}.cls-3{stroke-miterlimit:10;}</style></defs><title>Minima Web Icon</title><path class="cls-1" d="M163.59,140.71a23.05,23.05,0,1,0-23,23A23,23,0,0,0,163.59,140.71Zm-31,2.64,5.62,5.75,12.65-16.78" transform="translate(-25.09 -25.09)"/><path class="cls-2" d="M159.16,179.51h16V176H84V102H197.1v10.1h3.47V99.28A2.12,2.12,0,0,0,198.64,97H82.44a2.12,2.12,0,0,0-1.92,2.27v80.23h78.64Z" transform="translate(-25.09 -25.09)"/><path class="cls-2" d="M175.41,185.39h-108c.48,2.29,5.89,2.82,7.51,2.82H179.43A4.31,4.31,0,0,1,175.41,185.39Z" transform="translate(-25.09 -25.09)"/><path class="cls-2" d="M175.13,183.9v-4.39H69.52a2.23,2.23,0,0,0-2.18,2.26v3.62H175.41A4.11,4.11,0,0,1,175.13,183.9Z" transform="translate(-25.09 -25.09)"/><path class="cls-2" d="M175.23,116.41a4.31,4.31,0,0,1,4.28-4.3H197.1V102H84v74h91.14Z" transform="translate(-25.09 -25.09)"/><path class="cls-3" d="M210,112.11h-30.6a4.31,4.31,0,0,0-4.3,4.3V183.9a4.11,4.11,0,0,0,.28,1.49,4.31,4.31,0,0,0,4,2.81H210a4.31,4.31,0,0,0,4.3-4.3V116.41A4.32,4.32,0,0,0,210,112.11Z" transform="translate(-25.09 -25.09)"/><rect class="cls-3" x="153.51" y="94.17" width="32.26" height="61.82"/><polygon class="cls-2" points="174.21 119.39 171.82 129.96 173.1 135.32 175.49 124.75 174.21 119.39"/><polygon class="cls-2" points="169.29 119.39 169.29 119.39 169.29 119.39 169.29 119.39"/><polygon class="cls-2" points="167.42 116.65 164.62 129.03 165.69 135.32 168.49 122.94 167.42 116.65"/><polygon class="cls-2" points="162.91 114.83 162.5 116.65 162.5 116.65 162.5 116.65 158.28 135.32 163.19 135.32 164.62 129.03 167.42 116.65 162.91 114.83"/><polygon class="cls-2" points="169.71 117.57 169.29 119.39 169.29 119.39 168.49 122.94 165.69 135.32 170.61 135.32 171.82 129.96 174.21 119.39 169.71 117.57"/><polygon class="cls-2" points="176.5 120.31 175.49 124.75 173.1 135.32 178.02 135.32 181 122.13 176.5 120.31"/><circle class="cls-2" cx="116.65" cy="116.65" r="116.35"/></svg>