<?xml version="1.0" encoding="utf-8"?>
<!-- Generator: Adobe Illustrator 23.0.6, SVG Export Plug-In . SVG Version: 6.00 Build 0)  -->
<svg version="1.1" id="Layer_1" xmlns="http://www.w3.org/2000/svg" xmlns:xlink="http://www.w3.org/1999/xlink" x="0px" y="0px"
	 viewBox="0 0 25.91 25.91" style="enable-background:new 0 0 25.91 25.91;" xml:space="preserve">
<style type="text/css">
	.st0{fill:#FFFFFF;}
	.st1{fill:#DCDCDC;}
	.st2{fill:#231F20;}
</style>
<g>
	<g id="Path_1592" transform="translate(1006.657 15.088)">
		<path class="st0" d="M-993.7,10.33c-3.33,0-6.46-1.3-8.81-3.65s-3.65-5.48-3.65-8.81s1.3-6.46,3.65-8.81s5.48-3.65,8.81-3.65
			c3.33,0,6.46,1.3,8.81,3.65s3.65,5.48,3.65,8.81s-1.3,6.46-3.65,8.81S-990.37,10.33-993.7,10.33z"/>
		<path class="st1" d="M-993.7-14.09c-3.19,0-6.2,1.24-8.46,3.5c-2.26,2.26-3.5,5.26-3.5,8.46s1.24,6.2,3.5,8.46
			c2.26,2.26,5.26,3.5,8.46,3.5c3.19,0,6.2-1.24,8.46-3.5c2.26-2.26,3.5-5.26,3.5-8.46s-1.24-6.2-3.5-8.46
			C-987.5-12.84-990.51-14.09-993.7-14.09 M-993.7-15.09c7.16,0,12.96,5.8,12.96,12.96s-5.8,12.96-12.96,12.96
			s-12.96-5.8-12.96-12.96S-1000.86-15.09-993.7-15.09z"/>
	</g>
	<path id="Shape" class="st2" d="M8.02,9.92C8.04,9.76,7.98,9.61,7.86,9.5L6.65,8.04V7.82h3.75l2.9,6.36l2.55-6.36h3.58v0.22
		l-1.03,0.99c-0.09,0.07-0.13,0.18-0.12,0.29v7.28c-0.02,0.11,0.03,0.22,0.12,0.29l1.01,0.99v0.22h-5.07v-0.22l1.04-1.01
		c0.1-0.1,0.1-0.13,0.1-0.29v-5.88l-2.9,7.38h-0.39l-3.38-7.38v4.95c-0.03,0.21,0.04,0.42,0.19,0.57l1.36,1.65v0.22H6.49v-0.22
		l1.36-1.65c0.15-0.15,0.21-0.36,0.17-0.57V9.92z"/>
</g>
</svg>
