<svg version="1.1" id="Layer_1" xmlns="http://www.w3.org/2000/svg" xmlns:xlink="http://www.w3.org/1999/xlink" x="0px" y="0px"
	 viewBox="0 0 184 130" enable-background="new 0 0 184 130" xml:space="preserve">
<linearGradient id="XMLID_108_" gradientUnits="userSpaceOnUse" x1="0.5062" y1="50.8767" x2="179.5062" y2="50.8767">
	<stop  offset="0" style="stop-color:#21B3E8"/>
	<stop  offset="1" style="stop-color:#2F2E7B"/>
</linearGradient>
<path id="XMLID_2_" fill="url(#XMLID_108_)" d="M155.5,62.2h14.1c6.2,0,11.3-5.1,11.3-11.3c0-6.2-5.1-11.3-11.3-11.3h-14.1
	c-6.2,0-11.3,5.1-11.3,11.3C144.2,57.1,149.3,62.2,155.5,62.2"/>
<linearGradient id="XMLID_109_" gradientUnits="userSpaceOnUse" x1="0.5062" y1="65.0071" x2="179.5062" y2="65.0071">
	<stop  offset="0" style="stop-color:#21B3E8"/>
	<stop  offset="1" style="stop-color:#2F2E7B"/>
</linearGradient>
<path id="XMLID_1_" fill="url(#XMLID_109_)" d="M180.7,102.4c-4.4-4.4-11.6-4.4-16,0c-3.2,3.2-7.5,5-12,5c-9.4,0-17-7.6-17-17V39.6
	C135.7,17.8,118,0,96.1,0C85.1,0,74.4,5,67.9,13C61.3,5,50.7,0,39.6,0C17.8,0,0,17.8,0,39.6v56.5c0,6.2,5.1,11.3,11.3,11.3
	s11.3-5.1,11.3-11.3V39.6c0-9.4,7.6-17,17-17c9.4,0,17,7.6,17,17v56.5c0,6.2,5.1,11.3,11.3,11.3c6.2,0,11.3-5.1,11.3-11.3V39.6
	c0-9.4,7.6-17,17-17c9.4,0,17,7.6,17,17v50.9c0,21.8,17.8,39.6,39.6,39.6c10.6,0,20.5-4.1,28-11.6
	C185.1,114,185.1,106.8,180.7,102.4z"/>
</svg>
