<?xml version="1.0" encoding="utf-8"?>
<!-- Generator: Adobe Illustrator 24.0.2, SVG Export Plug-In . SVG Version: 6.00 Build 0)  -->
<svg version="1.1" id="Layer_1" xmlns="http://www.w3.org/2000/svg" xmlns:xlink="http://www.w3.org/1999/xlink" x="0px" y="0px"
	 viewBox="0 0 25.9 25.9" style="enable-background:new 0 0 25.9 25.9;" xml:space="preserve">
<style type="text/css">
	.st0{fill:#DCDCDC;}
	.st1{fill:#FFFFFF;}
	.st2{fill:#221E1B;}
</style>
<g>
	<g id="Path_1593" transform="translate(1041.457 15.088)">
		<path class="st0" d="M-1028.5-14.1c-3.2,0-6.2,1.2-8.5,3.5s-3.5,5.3-3.5,8.5s1.2,6.2,3.5,8.5s5.3,3.5,8.5,3.5
			c3.2,0,6.2-1.2,8.5-3.5s3.5-5.3,3.5-8.5s-1.2-6.2-3.5-8.5C-1022.3-12.8-1025.3-14.1-1028.5-14.1 M-1028.5-15.1c7.2,0,13,5.8,13,13
			s-5.8,13-13,13s-13-5.8-13-13S-1035.7-15.1-1028.5-15.1z"/>
	</g>
</g>
<g>
	<polygon class="st1" points="11.6,15 15.1,13 11.6,10.9 	"/>
</g>
<path class="st2" d="M19.2,7c-0.1-0.1-0.2-0.1-0.3-0.1c-0.1,0-4.7,1.7-13.9,5.1c-0.2,0.1-0.3,0.2-0.3,0.5c0,0.2,0.1,0.4,0.4,0.5
	l3.4,1L9.7,18c0.1,0.2,0.3,0.4,0.5,0.4c0.1,0,0.2,0,0.3-0.1l1.9-1.8l3.4,2.5c0.1,0.1,0.3,0.1,0.4,0.1c0.4,0,0.6-0.2,0.7-0.6
	l2.3-11.2C19.3,7.2,19.3,7.1,19.2,7z M16.7,9.1c0,0-2.1,1.9-6.3,5.7L10.1,17l-1-3.4c4.9-3.1,7.3-4.7,7.4-4.7
	C16.6,8.9,16.7,9,16.7,9.1C16.7,9.1,16.7,9.1,16.7,9.1z"/>
</svg>
