<svg xmlns="http://www.w3.org/2000/svg" width="35" height="35" viewBox="0 0 35 35"><defs><style>.a{fill:none;stroke:#000;stroke-miterlimit:10;}.b{fill:#001c32;}</style></defs><g transform="translate(-36.5 -376.5)"><g transform="translate(248.676 27.554)"><ellipse class="a" cx="17" cy="17" rx="17" ry="17" transform="translate(-211.676 349.446)"/><g transform="translate(-204.403 357.792)"><path class="b" d="M-197.482,370.5l0-.006a3.779,3.779,0,0,0-.936-1.411,2.979,2.979,0,0,0-.576-.438l0,0h-.01a2.3,2.3,0,0,0-.956.03,2.525,2.525,0,0,0-.892.426,3.785,3.785,0,0,0-.828.86,6.4,6.4,0,0,0-.68,1.252,5.988,5.988,0,0,1-.746,1.307,5.139,5.139,0,0,1-.736.792,3.472,3.472,0,0,1-.683.472.787.787,0,0,1-.37.117l-.022.084a11.168,11.168,0,0,0,1.175.361,8.336,8.336,0,0,0,1.093.194c.122.014.242.023.36.03s.234.01.348.01a5.1,5.1,0,0,0,1.178-.131,3.969,3.969,0,0,0,1.02-.389,3.948,3.948,0,0,0,1.419-1.358,6.577,6.577,0,0,0,.847-2.179l0-.007v-.006Z" transform="translate(204.923 -357.272)"/><path class="b" d="M-185.472,357.318a.061.061,0,0,0-.015-.024.054.054,0,0,0-.025-.016.079.079,0,0,0-.032-.006,8.547,8.547,0,0,0-1.842,1.134c-.96.678-2.168,1.579-3.324,2.474-1.516,1.173-2.887,2.287-4.015,3.256a31.386,31.386,0,0,0-2.552,2.386,3.063,3.063,0,0,0-.3.378c-.084.128-.162.263-.256.425-.053.092-.109.189-.173.3s-.137.228-.223.363l-.011.017-.011.018.017.012.017.012a4.03,4.03,0,0,1,.659.592,4.1,4.1,0,0,1,.651.982l.01.021.011.021.02-.011.02-.012c.173-.1.325-.179.463-.249s.262-.129.378-.184c.165-.078.307-.146.44-.221a2.5,2.5,0,0,0,.391-.268,31.453,31.453,0,0,0,2.478-2.459c1.012-1.092,2.181-2.424,3.416-3.9.917-1.1,1.864-2.268,2.585-3.206a9.084,9.084,0,0,0,1.222-1.8A.076.076,0,0,0-185.472,357.318Z" transform="translate(204.923 -357.272)"/></g></g></g></svg>