<svg xmlns="http://www.w3.org/2000/svg" width="35" height="35" viewBox="0 0 35 35"><defs><style>.a{fill:none;stroke:#000;stroke-miterlimit:10;}.b{fill:#001c32;}</style></defs><g transform="translate(-36.5 -433.5)"><g transform="translate(248.905 32.544)"><ellipse class="a" cx="17" cy="17" rx="17" ry="17" transform="translate(-211.905 401.456)"/></g><path class="b" d="M273.784,399.2l-2.975-2.976a1.823,1.823,0,1,0-3.546-.59,1.8,1.8,0,0,0,.106.59l-7.063,7.061a1.7,1.7,0,0,0-1.187,0l-3.538-3.51a1.826,1.826,0,1,0-3.443.007l-2.83,2.83,1.13,1.13,2.83-2.83a1.7,1.7,0,0,0,1.187,0l3.539,3.511a1.826,1.826,0,1,0,3.443-.007l7.061-7.063a1.7,1.7,0,0,0,1.181,0l2.974,2.974Z" transform="translate(-207.308 50.192)"/></g></svg>