<?xml version="1.0" encoding="utf-8"?>
<!-- Generator: Adobe Illustrator 25.1.0, SVG Export Plug-In . SVG Version: 6.00 Build 0)  -->
<svg version="1.1" id="Layer_1" xmlns="http://www.w3.org/2000/svg" xmlns:xlink="http://www.w3.org/1999/xlink" x="0px" y="0px"
	 viewBox="0 0 100 100" style="enable-background:new 0 0 100 100;" xml:space="preserve">
<style type="text/css">
	.st0{fill-rule:evenodd;clip-rule:evenodd;}
</style>
<path d="M59.4,47.5c-3,0-5.4,2.6-5.4,5.9c0,3.2,2.4,5.9,5.4,5.9c3,0,5.4-2.6,5.4-5.9C64.8,50.2,62.4,47.5,59.4,47.5z M40.1,47.5
	c-3,0-5.4,2.6-5.4,5.9c0,3.2,2.4,5.9,5.4,5.9c3,0,5.4-2.6,5.4-5.9C45.6,50.2,43.1,47.5,40.1,47.5z M50,0C22.4,0,0,22.4,0,50
	s22.4,50,50,50c27.6,0,50-22.4,50-50S77.6,0,50,0z M64.7,72.2c0,0-1.9-2.3-3.5-4.3c6.9-2,9.6-6.3,9.6-6.3c-2.2,1.4-4.2,2.4-6.1,3.1
	c-2.6,1.1-5.2,1.9-7.7,2.3c-5.1,1-9.7,0.7-13.7-0.1c-3-0.6-5.6-1.4-7.8-2.3c-1.2-0.5-2.5-1.1-3.9-1.8c-0.2-0.1-0.3-0.2-0.5-0.3
	c-0.1-0.1-0.2-0.1-0.2-0.2c-1-0.5-1.5-0.9-1.5-0.9s2.5,4.2,9.3,6.2c-1.6,2-3.5,4.4-3.5,4.4c-11.7-0.4-16.1-8-16.1-8
	c0-17,7.6-30.9,7.6-30.9c7.6-5.7,14.9-5.6,14.9-5.6l0.5,0.6c-9.5,2.8-13.9,6.9-13.9,6.9s1.2-0.6,3.1-1.5c5.7-2.5,10.2-3.2,12-3.3
	c0.3-0.1,0.6-0.1,0.9-0.1c3.2-0.4,6.9-0.5,10.7-0.1c5,0.6,10.4,2.1,15.9,5.1c0,0-4.2-4-13.2-6.7l0.7-0.8c0,0,7.3-0.2,14.9,5.6
	c0,0,7.6,13.8,7.6,30.9C80.9,64.2,76.4,71.9,64.7,72.2z"/>
</svg>
