<?xml version="1.0" encoding="utf-8"?>
<!-- Generator: Adobe Illustrator 25.1.0, SVG Export Plug-In . SVG Version: 6.00 Build 0)  -->
<svg version="1.1" id="Layer_1" xmlns="http://www.w3.org/2000/svg" xmlns:xlink="http://www.w3.org/1999/xlink" x="0px" y="0px"
	 viewBox="0 0 100 100" style="enable-background:new 0 0 100 100;" xml:space="preserve">
<style type="text/css">
	.st0{fill-rule:evenodd;clip-rule:evenodd;}
</style>
<g>
	<path class="st0" d="M50,1C22.4,1,0,23.4,0,51c0,22.1,14.3,40.8,34.2,47.4c2.5,0.5,3.4-1.1,3.4-2.4c0-1.2,0-5.1-0.1-9.3
		c-13.9,3-16.8-5.9-16.8-5.9c-2.3-5.8-5.6-7.3-5.6-7.3c-4.5-3.1,0.3-3,0.3-3c5,0.4,7.7,5.2,7.7,5.2c4.5,7.6,11.7,5.4,14.6,4.2
		c0.4-3.2,1.7-5.4,3.2-6.7c-11.1-1.3-22.8-5.6-22.8-24.7c0-5.5,2-9.9,5.2-13.4c-0.5-1.3-2.2-6.3,0.5-13.2c0,0,4.2-1.3,13.8,5.1
		c4-1.1,8.3-1.7,12.5-1.7c4.2,0,8.5,0.6,12.5,1.7c9.5-6.5,13.7-5.1,13.7-5.1c2.7,6.9,1,12,0.5,13.2c3.2,3.5,5.1,8,5.1,13.4
		c0,19.2-11.7,23.4-22.8,24.7c1.8,1.6,3.4,4.6,3.4,9.3c0,6.7-0.1,12.1-0.1,13.7c0,1.3,0.9,2.9,3.4,2.4C85.7,91.9,100,73.1,100,51
		C100,23.4,77.6,1,50,1z"/>
	<path d="M18.9,72.8c-0.1,0.2-0.5,0.3-0.9,0.2c-0.4-0.2-0.6-0.5-0.4-0.8c0.1-0.3,0.5-0.3,0.9-0.2C18.9,72.2,19.1,72.6,18.9,72.8
		L18.9,72.8z M18.3,72.4"/>
	<path d="M21,75.1c-0.2,0.2-0.7,0.1-1-0.2c-0.3-0.3-0.4-0.8-0.1-1c0.2-0.2,0.7-0.1,1,0.2C21.1,74.4,21.2,74.9,21,75.1L21,75.1z
		 M20.5,74.6"/>
	<path d="M22.9,78c-0.3,0.2-0.8,0-1.1-0.4c-0.3-0.4-0.3-1,0-1.2c0.3-0.2,0.8,0,1.1,0.4C23.2,77.2,23.2,77.7,22.9,78L22.9,78z
		 M22.9,78"/>
	<path d="M25.6,80.7c-0.3,0.3-0.9,0.2-1.3-0.2c-0.4-0.4-0.6-1-0.3-1.3c0.3-0.3,0.9-0.2,1.3,0.2C25.8,79.9,25.9,80.4,25.6,80.7
		L25.6,80.7z M25.6,80.7"/>
	<path d="M29.4,82.4c-0.1,0.4-0.7,0.6-1.2,0.4c-0.6-0.2-0.9-0.6-0.8-1c0.1-0.4,0.7-0.6,1.3-0.4C29.1,81.5,29.5,82,29.4,82.4
		L29.4,82.4z M29.4,82.4"/>
	<path d="M33.5,82.7c0,0.4-0.5,0.8-1.1,0.8c-0.6,0-1.1-0.3-1.1-0.7c0-0.4,0.5-0.8,1.1-0.8C33,81.9,33.5,82.3,33.5,82.7L33.5,82.7z
		 M33.5,82.7"/>
	<path d="M37.3,82c0.1,0.4-0.3,0.8-0.9,0.9c-0.6,0.1-1.1-0.1-1.2-0.5c-0.1-0.4,0.3-0.8,0.9-0.9C36.7,81.4,37.2,81.6,37.3,82L37.3,82
		z M37.3,82"/>
</g>
</svg>
