<?xml version="1.0" encoding="iso-8859-1"?>
<!-- Generator: Adobe Illustrator 19.0.0, SVG Export Plug-In . SVG Version: 6.00 Build 0)  -->
<svg version="1.1" id="Capa_1" xmlns="http://www.w3.org/2000/svg" xmlns:xlink="http://www.w3.org/1999/xlink" x="0px" y="0px"
	 viewBox="0 0 512 512" style="enable-background:new 0 0 512 512;" xml:space="preserve">
<g>
	<g>
		<g>
			<path d="M448,0h-32v32h32c17.673,0,32,14.327,32,32v384c0,17.673-14.327,32-32,32H64c-17.673,0-32-14.327-32-32V64
				c0-17.673,14.327-32,32-32h192V0H64C28.654,0,0,28.654,0,64v384c0,35.346,28.654,64,64,64h384c35.346,0,64-28.654,64-64V64
				C512,28.654,483.346,0,448,0z"/>
			<rect x="352" width="32" height="32"/>
			<rect x="288" width="32" height="32"/>
			<polygon points="186.304,128 112,128 112,160 144,160 144,352 112,352 112,384 176,384 176,182.656 256,358.672 336,182.656 
				336,384 400,384 400,352 368,352 368,160 400,160 400,128 325.696,128 256,281.328 			"/>
		</g>
	</g>
</g>
<g>
</g>
<g>
</g>
<g>
</g>
<g>
</g>
<g>
</g>
<g>
</g>
<g>
</g>
<g>
</g>
<g>
</g>
<g>
</g>
<g>
</g>
<g>
</g>
<g>
</g>
<g>
</g>
<g>
</g>
</svg>
