<svg id="Layer_1" data-name="Layer 1" xmlns="http://www.w3.org/2000/svg" viewBox="0 0 841.89 595.28"><defs><style>.cls-1{fill:#231f20;}.cls-2{fill:#ff671d;}.cls-3{fill:#00abc7;}.cls-4{fill:#929396;}</style></defs><title>Minima Landscape</title><path id="Path_1" data-name="Path 1" class="cls-1" d="M329.72,290.26a2.51,2.51,0,0,1,2.45-2.45h.56a2.75,2.75,0,0,1,2.33,1.33l15.71,23.62,15.68-23.63a2.67,2.67,0,0,1,2.32-1.32h.57a2.51,2.51,0,0,1,2.45,2.45v39.52a2.51,2.51,0,0,1-2.45,2.51,2.57,2.57,0,0,1-2.51-2.51V297l-14.08,20.67a2.44,2.44,0,0,1-2.07,1.26,2.54,2.54,0,0,1-2.14-1.26l-14-20.61v32.81a2.42,2.42,0,0,1-4.84,0h0Z"/><path id="Path_2" data-name="Path 2" class="cls-1" d="M397.26,290.2a2.49,2.49,0,0,1,5,0v39.59a2.49,2.49,0,0,1-5,0Z"/><path id="Path_3" data-name="Path 3" class="cls-1" d="M427.68,290.26a2.51,2.51,0,0,1,2.45-2.45h.69a3,3,0,0,1,2.51,1.47l26.72,34V290.14a2.42,2.42,0,0,1,4.84,0v39.71a2.23,2.23,0,0,1-2.13,2.32h-.39a3.44,3.44,0,0,1-2.57-1.51l-27.28-34.88v34.06a2.42,2.42,0,1,1-4.83,0Z"/><path id="Path_4" data-name="Path 4" class="cls-1" d="M490.33,290.2a2.49,2.49,0,0,1,5,0v39.59a2.49,2.49,0,0,1-5,0Z"/><path id="Path_5" data-name="Path 5" class="cls-1" d="M520.75,290.26a2.51,2.51,0,0,1,2.45-2.45h.56a2.75,2.75,0,0,1,2.33,1.33l15.71,23.62,15.73-23.63a2.67,2.67,0,0,1,2.33-1.32h.56a2.49,2.49,0,0,1,2.45,2.45v39.52a2.51,2.51,0,0,1-2.45,2.51,2.56,2.56,0,0,1-2.51-2.51V297l-14.08,20.67a2.44,2.44,0,0,1-2.07,1.26,2.54,2.54,0,0,1-2.14-1.26l-14-20.61v32.81a2.42,2.42,0,1,1-4.84,0h0Z"/><path id="Path_6" data-name="Path 6" class="cls-1" d="M585.15,328.72l17.85-39a3.22,3.22,0,0,1,3.14-2.19h.25a3.16,3.16,0,0,1,3.08,2.19l17.85,39a3.38,3.38,0,0,1,.31,1.25,2.39,2.39,0,0,1-2.39,2.39h0a2.72,2.72,0,0,1-2.45-1.82l-4.59-10.12H594.07l-4.59,10.24a2.48,2.48,0,0,1-2.38,1.7,2.26,2.26,0,0,1-2.27-2.24v0A2.89,2.89,0,0,1,585.15,328.72Zm31.11-12.88-10.12-22.5L596,315.84Z"/><path id="Path_7" data-name="Path 7" class="cls-1" d="M251.53,278.4h16.65l12.88,53.9H264.41Z"/><path id="Path_8" data-name="Path 8" class="cls-1" d="M245.19,269.11,256,332.28H239.31l-10.77-63.17Z"/><path id="Path_9" data-name="Path 9" class="cls-2" d="M214.26,332.3h16.65l14.29-63.17L230,263Z"/><path id="Path_10" data-name="Path 10" class="cls-3" d="M239.34,332.3H256l12.19-53.89-15.24-6.16Z"/><path id="Path_11" data-name="Path 11" class="cls-4" d="M275.9,281.53,264.42,332.3h16.65l10.09-44.61Z"/></svg>